<svg xmlns="http://www.w3.org/2000/svg" version="1.1" xmlns:xlink="http://www.w3.org/1999/xlink" xmlns:svgjs="http://svgjs.com/svgjs" width="1920" height="560" preserveAspectRatio="none" viewBox="0 0 1920 560"><g mask="url(&quot;#SvgjsMask1029&quot;)" fill="none"><path d="M20.51 317.35L73.41 317.35L73.41 330.66L20.51 330.66z" fill="rgba(89, 183, 231, 1)"></path><path d="M294.38 461.19 a7.48 7.48 0 1 0 14.96 0 a7.48 7.48 0 1 0 -14.96 0z" fill="rgba(89, 183, 231, 1)"></path><path d="M1895.76 310.96L1926.37 310.96L1926.37 341.57L1895.76 341.57z" stroke="rgba(89, 183, 231, 1)"></path><path d="M1834.37 141.24a9.06 9.06 0 1 0 11.01 14.39z" stroke="rgba(89, 183, 231, 1)"></path><path d="M335 139.22a15.09 15.09 0 1 0-15.04-26.17z" fill="rgba(89, 183, 231, 1)"></path><path d="M565.77 99.68L590.94 99.68L590.94 124.85L565.77 124.85z" stroke="rgba(209, 221, 83, 1)"></path><path d="M549.75 481.67L587.07 481.67L587.07 529.92L549.75 529.92z" stroke="rgba(89, 183, 231, 1)"></path><path d="M1389.07 401.5L1443 401.5L1443 455.43L1389.07 455.43z" stroke="rgba(221, 40, 182, 1)"></path><path d="M671.95 366.38a11.65 11.65 0 1 0-7.24-22.15z" stroke="rgba(209, 221, 83, 1)"></path><path d="M72.61 396.1 a32.37 32.37 0 1 0 64.74 0 a32.37 32.37 0 1 0 -64.74 0z" fill="rgba(221, 40, 182, 1)"></path><path d="M1365.34 193.97a5.56 5.56 0 1 0 7.9 7.82z" stroke="rgba(89, 183, 231, 1)"></path><path d="M1552.86 385.77a0.35 0.35 0 1 0-0.66-0.24z" fill="rgba(209, 221, 83, 1)"></path><path d="M1262.16 483.92 a4.31 4.31 0 1 0 8.62 0 a4.31 4.31 0 1 0 -8.62 0z" fill="rgba(89, 183, 231, 1)"></path><path d="M819.62 110.74L874.17 110.74L874.17 144.48L819.62 144.48z" fill="rgba(221, 40, 182, 1)"></path><path d="M1138.8 541.54 a32.5 32.5 0 1 0 65 0 a32.5 32.5 0 1 0 -65 0z" stroke="rgba(209, 221, 83, 1)"></path><path d="M1575.83 548.81L1600.4 548.81L1600.4 573.38L1575.83 573.38z" stroke="rgba(209, 221, 83, 1)"></path><path d="M544.32 95.38L564.59 95.38L564.59 115.65L544.32 115.65z" stroke="rgba(221, 40, 182, 1)"></path><path d="M56.76 245.46a1.59 1.59 0 1 0-2.58 1.86z" stroke="rgba(221, 40, 182, 1)"></path><path d="M684.18 261.08 a28.77 28.77 0 1 0 57.54 0 a28.77 28.77 0 1 0 -57.54 0z" stroke="rgba(89, 183, 231, 1)"></path><path d="M1206.45 389.95 a31.48 31.48 0 1 0 62.96 0 a31.48 31.48 0 1 0 -62.96 0z" fill="rgba(89, 183, 231, 1)"></path><path d="M35.7 121.67a15.5 15.5 0 1 0-10.07 29.32z" fill="rgba(209, 221, 83, 1)"></path><path d="M726.22 375.9L770.45 375.9L770.45 420.13L726.22 420.13z" stroke="rgba(89, 183, 231, 1)"></path><path d="M1434.89 322.1a27.83 27.83 0 1 0 32.56 45.14z" stroke="rgba(209, 221, 83, 1)"></path><path d="M640.56 124.94a39.97 39.97 0 1 0-21.5 77z" stroke="rgba(209, 221, 83, 1)"></path><path d="M1727.69 217.9 a40.84 40.84 0 1 0 81.68 0 a40.84 40.84 0 1 0 -81.68 0z" stroke="rgba(89, 183, 231, 1)"></path><path d="M929.1 512.9 a1.28 1.28 0 1 0 2.56 0 a1.28 1.28 0 1 0 -2.56 0z" stroke="rgba(89, 183, 231, 1)"></path><path d="M1898.08 466.94L1913.44 466.94L1913.44 490.09L1898.08 490.09z" stroke="rgba(209, 221, 83, 1)"></path><path d="M1489.54 311.37 a1.07 1.07 0 1 0 2.14 0 a1.07 1.07 0 1 0 -2.14 0z" fill="rgba(209, 221, 83, 1)"></path><path d="M987.86 86.45L989.63 86.45L989.63 88.22L987.86 88.22z" fill="rgba(89, 183, 231, 1)"></path><path d="M1725.23 202.05L1750.05 202.05L1750.05 226.87L1725.23 226.87z" stroke="rgba(221, 40, 182, 1)"></path><path d="M409.79 271.34a43.16 43.16 0 1 0 34.06 79.32z" stroke="rgba(89, 183, 231, 1)"></path><path d="M1647.35 86.21a17.96 17.96 0 1 0-12.56-33.65z" fill="rgba(221, 40, 182, 1)"></path><path d="M257.28 284.4 a36.85 36.85 0 1 0 73.7 0 a36.85 36.85 0 1 0 -73.7 0z" stroke="rgba(89, 183, 231, 1)"></path><path d="M1542.91 505.01a8.65 8.65 0 1 0-10.24 13.95z" stroke="rgba(209, 221, 83, 1)"></path><path d="M403.13 384.74L419.97 384.74L419.97 401.58L403.13 401.58z" fill="rgba(209, 221, 83, 1)"></path><path d="M1367.99 256.57L1410.37 256.57L1410.37 275.02L1367.99 275.02z" stroke="rgba(209, 221, 83, 1)"></path><path d="M526.1 536.33L572.09 536.33L572.09 582.32L526.1 582.32z" fill="rgba(89, 183, 231, 1)"></path><path d="M1286.79 390.42 a55.44 55.44 0 1 0 110.88 0 a55.44 55.44 0 1 0 -110.88 0z" fill="rgba(209, 221, 83, 1)"></path><path d="M627.72 167.06L664.06 167.06L664.06 203.4L627.72 203.4z" fill="rgba(221, 40, 182, 1)"></path><path d="M755.36 586.84a55.43 55.43 0 1 0-3.11-110.81z" stroke="rgba(221, 40, 182, 1)"></path><path d="M25.31 268.74L78.99 268.74L78.99 322.42L25.31 322.42z" stroke="rgba(89, 183, 231, 1)"></path><path d="M1830.06 310.11a55.91 55.91 0 1 0 37.03-105.5z" fill="rgba(221, 40, 182, 1)"></path><path d="M1735.51 533.17 a21.34 21.34 0 1 0 42.68 0 a21.34 21.34 0 1 0 -42.68 0z" fill="rgba(209, 221, 83, 1)"></path></g><defs><mask id="SvgjsMask1029"><rect width="1920" height="560" fill="#ffffff"></rect></mask></defs></svg>