<svg xmlns="http://www.w3.org/2000/svg" version="1.1" xmlns:xlink="http://www.w3.org/1999/xlink" xmlns:svgjs="http://svgjs.com/svgjs" width="1440" height="560" preserveAspectRatio="none" viewBox="0 0 1440 560"><g mask="url(&quot;#SvgjsMask1117&quot;)" fill="none"><rect width="60" height="60" clip-path="url(&quot;#SvgjsClipPath1118&quot;)" x="688.75" y="132.99" fill="url(#SvgjsPattern1119)" transform="rotate(305.4, 718.75, 162.99)"></rect><rect width="151.92" height="151.92" clip-path="url(&quot;#SvgjsClipPath1120&quot;)" x="128.95" y="18.59" fill="url(#SvgjsPattern1121)" transform="rotate(349.34, 204.91, 94.55)"></rect><path d="M1408.19 461.24 L1538.92 476.11L1402.7295205440105 539.5004794559895z" fill="#e73635"></path><rect width="200.96" height="200.96" clip-path="url(&quot;#SvgjsClipPath1122&quot;)" x="555.3" y="307.49" fill="url(#SvgjsPattern1123)" transform="rotate(350.79, 655.78, 407.97)"></rect><circle r="46.666666666666664" cx="740.69" cy="246.99" stroke="rgba(46, 132, 211, 1)" stroke-width="1" stroke-dasharray="4, 4"></circle><rect width="192" height="192" clip-path="url(&quot;#SvgjsClipPath1124&quot;)" x="-42.92" y="69.74" fill="url(#SvgjsPattern1125)" transform="rotate(97.27, 53.08, 165.74)"></rect><path d="M797.8900000000001 557.42 L850.2900000000001 494.36L781.9195834092966 483.71958340929643z" stroke="#d3b714" stroke-width="1" stroke-dasharray="4, 4"></path><rect width="348" height="348" clip-path="url(&quot;#SvgjsClipPath1126&quot;)" x="-40.03" y="257.23" fill="url(#SvgjsPattern1127)" transform="rotate(321.52, 133.97, 431.23)"></rect><rect width="166.08" height="166.08" clip-path="url(&quot;#SvgjsClipPath1128&quot;)" x="772.92" y="245.63" fill="url(#SvgjsPattern1129)" transform="rotate(36.52, 855.96, 328.67)"></rect><rect width="100.6" height="100.6" clip-path="url(&quot;#SvgjsClipPath1130&quot;)" x="1315.66" y="217.54" fill="url(#SvgjsPattern1131)" transform="rotate(82.43, 1365.96, 267.84)"></rect><rect width="125.2" height="125.2" clip-path="url(&quot;#SvgjsClipPath1132&quot;)" x="1236.83" y="264.59" fill="url(#SvgjsPattern1133)" transform="rotate(229.51, 1299.43, 327.19)"></rect><rect width="168" height="168" clip-path="url(&quot;#SvgjsClipPath1134&quot;)" x="784.35" y="437.98" fill="url(#SvgjsPattern1135)" transform="rotate(332.13, 868.35, 521.98)"></rect></g><defs><mask id="SvgjsMask1117"><rect width="1440" height="560" fill="#ffffff"></rect></mask><pattern x="0" y="0" width="6" height="6" patternUnits="userSpaceOnUse" id="SvgjsPattern1119"><path d="M3 1L3 5M1 3L5 3" stroke="rgba(46, 132, 211, 1)" fill="none" stroke-width="1.76"></path></pattern><clipPath id="SvgjsClipPath1118"><circle r="15" cx="718.75" cy="162.99"></circle></clipPath><pattern x="0" y="0" width="151.92" height="8.44" patternUnits="userSpaceOnUse" id="SvgjsPattern1121"><rect width="151.92" height="4.22" x="0" y="0" fill="rgba(46, 132, 211, 1)"></rect><rect width="151.92" height="4.22" x="0" y="4.22" fill="rgba(0, 0, 0, 0)"></rect></pattern><clipPath id="SvgjsClipPath1120"><circle r="37.98" cx="204.91" cy="94.55"></circle></clipPath><pattern x="0" y="0" width="12.56" height="12.56" patternUnits="userSpaceOnUse" id="SvgjsPattern1123"><path d="M6.28 1L6.28 11.56M1 6.28L11.56 6.28" stroke="rgba(46, 132, 211, 1)" fill="none" stroke-width="2.89"></path></pattern><clipPath id="SvgjsClipPath1122"><circle r="50.24" cx="655.78" cy="407.97"></circle></clipPath><pattern x="0" y="0" width="192" height="6" patternUnits="userSpaceOnUse" id="SvgjsPattern1125"><rect width="192" height="3" x="0" y="0" fill="#d3b714"></rect><rect width="192" height="3" x="0" y="3" fill="rgba(0, 0, 0, 0)"></rect></pattern><clipPath id="SvgjsClipPath1124"><circle r="48" cx="53.08" cy="165.74"></circle></clipPath><pattern x="0" y="0" width="6" height="6" patternUnits="userSpaceOnUse" id="SvgjsPattern1127"><path d="M3 1L3 5M1 3L5 3" stroke="#e73635" fill="none" stroke-width="1"></path></pattern><clipPath id="SvgjsClipPath1126"><circle r="87" cx="133.97" cy="431.23"></circle></clipPath><pattern x="0" y="0" width="10.38" height="10.38" patternUnits="userSpaceOnUse" id="SvgjsPattern1129"><path d="M5.19 1L5.19 9.38M1 5.19L9.38 5.19" stroke="#e73635" fill="none" stroke-width="2.44"></path></pattern><clipPath id="SvgjsClipPath1128"><circle r="41.52" cx="855.96" cy="328.67"></circle></clipPath><pattern x="0" y="0" width="10.06" height="10.06" patternUnits="userSpaceOnUse" id="SvgjsPattern1131"><path d="M5.03 1L5.03 9.06M1 5.03L9.06 5.03" stroke="rgba(46, 132, 211, 1)" fill="none" stroke-width="2.77"></path></pattern><clipPath id="SvgjsClipPath1130"><circle r="25.15" cx="1365.96" cy="267.84"></circle></clipPath><pattern x="0" y="0" width="12.52" height="12.52" patternUnits="userSpaceOnUse" id="SvgjsPattern1133"><path d="M6.26 1L6.26 11.52M1 6.26L11.52 6.26" stroke="#e73635" fill="none" stroke-width="1"></path></pattern><clipPath id="SvgjsClipPath1132"><circle r="31.3" cx="1299.43" cy="327.19"></circle></clipPath><pattern x="0" y="0" width="6" height="6" patternUnits="userSpaceOnUse" id="SvgjsPattern1135"><path d="M3 1L3 5M1 3L5 3" stroke="rgba(46, 132, 211, 1)" fill="none" stroke-width="1"></path></pattern><clipPath id="SvgjsClipPath1134"><circle r="42" cx="868.35" cy="521.98"></circle></clipPath></defs></svg>