<svg data-name="Layer 1" xmlns="http://www.w3.org/2000/svg" viewBox="0 0 22 22"><path d="M12.75 16.85h0a1.67 1.67 0 0 1-1.68 1.67h0a1.67 1.67 0 0 1-1.67-1.67h0m2.51-4.6H5.25m11.28-5.04a5.86 5.86 0 0 0-5.46-3.73h0a5.85 5.85 0 0 0-5.85 5.85v1.89a3.3 3.3 0 0 1-.56 1.85l-1.09 1.65a.84.84 0 0 0 .7 1.3h10.09m2.56-1.26V9.75m2.51 2.5h-5.01" fill="none" stroke="currentColor" stroke-linecap="round" stroke-linejoin="round" stroke-width="1.5" data-darkreader-inline-stroke="" style="--darkreader-inline-stroke:currentColor;"></path></svg>