<svg data-name="Layer 1" xmlns="http://www.w3.org/2000/svg" viewBox="0 0 22 22">
  <path d="M17.84 9v3.87a1 1 0 11-1.94 0V9a1 1 0 111.94 0zM5.13 8a1 1 0 00-1 1v3.87a1 1 0 101.94 0V9a1 1 0 00-.94-1zm1.56 7.1a.76.76 0 00.76.76h.86V18a1 1 0 101.95 0v-2.14h1.52V18a1 1 0 101.94 0v-2.14h.87a.76.76 0 00.76-.76V8H6.69zm8.64-7.68H6.67A3.74 3.74 0 019 4.39l-.8-1.17a.14.14 0 010-.2.15.15 0 01.2 0l.8 1.26a4.93 4.93 0 013.6 0l.83-1.21a.15.15 0 01.2 0 .14.14 0 010 .2l-.8 1.17a3.76 3.76 0 012.3 2.98zM9.65 5.74a.47.47 0 00-.48-.48.48.48 0 00-.48.48.49.49 0 00.48.48.48.48 0 00.48-.48zm3.72 0a.48.48 0 00-.48-.48.47.47 0 00-.48.48.48.48 0 00.48.48.49.49 0 00.48-.48z" fill-rule="evenodd"></path>
</svg>