<svg xmlns="http://www.w3.org/2000/svg" width="22" height="22"><path fill="currentColor" d="M5 11.056a6.064 6.064 0 0 1 6.057-6.057 6.048 6.048 0 0 1 5.959 4.972l1.968-.355a8.046 8.046 0 0 0-7.927-6.617C6.614 2.999 3 6.614 3 11.056a8.045 8.045 0 0 0 6.616 7.927l.356-1.968A6.047 6.047 0 0 1 5 11.056z" data-darkreader-inline-fill="" style="--darkreader-inline-fill:currentColor;"></path><path fill="currentColor" d="M11.024 9c.98 0 1.817.699 1.991 1.661l1.969-.355A4.02 4.02 0 0 0 11.024 7 4.028 4.028 0 0 0 7 11.024a4.02 4.02 0 0 0 3.305 3.96l.356-1.968A2.02 2.02 0 0 1 9 11.024C9 9.908 9.908 9 11.024 9z" data-darkreader-inline-fill="" style="--darkreader-inline-fill:currentColor;"></path><path fill="currentColor" d="M18.853 16.732l-2.298-2.298a.25.25 0 0 1 0-.354l1.223-1.223a.25.25 0 0 0-.149-.425l-5.226-.581a.5.5 0 0 0-.552.552l.581 5.226a.25.25 0 0 0 .425.149l1.223-1.223a.252.252 0 0 1 .354 0l2.298 2.298a.499.499 0 0 0 .707 0l1.414-1.414a.5.5 0 0 0 0-.707z" data-darkreader-inline-fill="" style="--darkreader-inline-fill:currentColor;"></path></svg>