<svg width="32px" height="16px" viewBox="0 0 32 16" version="1.1" xmlns="http://www.w3.org/2000/svg" xmlns:xlink="http://www.w3.org/1999/xlink">
    <g stroke="none" stroke-width="1" fill="none" fill-rule="evenodd" data-darkreader-inline-stroke="" style="--darkreader-inline-stroke:none;">
        <g>
            <rect fill="#A081EA" x="0" y="0" width="32" height="16" rx="2" data-darkreader-inline-fill="" style="--darkreader-inline-fill:#9c7be9;"></rect>
            <path style="fill: white; --darkreader-inline-fill:#e8e6e3;" d="M7.808,7.6 L9.08,7.6 C9.30400112,7.6 9.48799928,7.5466672 9.632,7.44 C9.77600072,7.3333328 9.848,7.1600012 9.848,6.92 C9.848,6.786666 9.82400024,6.67733376 9.776,6.592 C9.72799976,6.50666624 9.6640004,6.44000024 9.584,6.392 C9.5039996,6.34399976 9.41200052,6.31066676 9.308,6.292 C9.20399948,6.27333324 9.09600056,6.264 8.984,6.264 L7.808,6.264 L7.808,7.6 Z M6.552,5.288 L9.24,5.288 C9.51200136,5.288 9.75999888,5.31199976 9.984,5.36 C10.2080011,5.40800024 10.3999992,5.48666612 10.56,5.596 C10.7200008,5.70533388 10.8439996,5.85066576 10.932,6.032 C11.0200004,6.21333424 11.064,6.437332 11.064,6.704 C11.064,6.99200144 10.9986673,7.23199904 10.868,7.424 C10.7373327,7.61600096 10.5440013,7.77333272 10.288,7.896 C10.6400018,7.99733384 10.9026658,8.1746654 11.076,8.428 C11.2493342,8.6813346 11.336,8.98666488 11.336,9.344 C11.336,9.63200144 11.2800006,9.88133228 11.168,10.092 C11.0559994,10.3026677 10.9053343,10.474666 10.716,10.608 C10.5266657,10.741334 10.3106679,10.8399997 10.068,10.904 C9.82533212,10.9680003 9.57600128,11 9.32,11 L6.552,11 L6.552,5.288 Z M7.808,10.024 L9.152,10.024 C9.27466728,10.024 9.39199944,10.0120001 9.504,9.988 C9.61600056,9.96399988 9.71466624,9.92400028 9.8,9.868 C9.88533376,9.81199972 9.95333308,9.73600048 10.004,9.64 C10.0546669,9.54399952 10.08,9.42133408 10.08,9.272 C10.08,8.9786652 9.99733416,8.76933396 9.832,8.644 C9.66666584,8.51866604 9.44800136,8.456 9.176,8.456 L7.808,8.456 L7.808,10.024 Z M12.184,5.288 L16.456,5.288 L16.456,6.344 L13.44,6.344 L13.44,7.568 L16.208,7.568 L16.208,8.544 L13.44,8.544 L13.44,9.944 L16.52,9.944 L16.52,11 L12.184,11 L12.184,5.288 Z M18.632,6.344 L16.92,6.344 L16.92,5.288 L21.6,5.288 L21.6,6.344 L19.888,6.344 L19.888,11 L18.632,11 L18.632,6.344 Z M22.96,8.792 L24.44,8.792 L23.72,6.696 L23.704,6.696 L22.96,8.792 Z M23.08,5.288 L24.368,5.288 L26.504,11 L25.2,11 L24.768,9.728 L22.632,9.728 L22.184,11 L20.92,11 L23.08,5.288 Z" id="BETA" fill="#FFFFFF" data-darkreader-inline-fill=""></path>
        </g>
    </g>
</svg>