<svg width="32" height="32" viewBox="0 0 32 32" fill="none" xmlns="http://www.w3.org/2000/svg">
<path fill-rule="evenodd" clip-rule="evenodd" d="M27.2247 16.7595C27.2415 16.5085 27.25 16.2552 27.25 16C27.25 15.746 27.2416 15.4939 27.225 15.2441C24.1885 11.7013 20.1603 9.74994 16 9.74994C11.8396 9.74994 7.81145 11.7013 4.77497 15.2441C4.7584 15.4939 4.74998 15.746 4.74998 16C4.74998 16.2552 4.75848 16.5085 4.77521 16.7595C7.45813 19.9361 10.9138 21.85 14.5444 22.2546C14.956 22.3004 15.2526 22.6713 15.2067 23.083C15.1608 23.4947 14.7899 23.7912 14.3783 23.7453C11.0596 23.3755 7.91696 21.8812 5.2946 19.4678C6.75648 23.984 10.9968 27.25 16 27.25C21.0057 27.25 25.2479 23.9806 26.7076 19.4607C26.4044 19.6899 25.9709 19.6566 25.7066 19.3721C25.4248 19.0686 25.4423 18.5941 25.7458 18.3122C26.2604 17.8343 26.7545 17.3163 27.2247 16.7595ZM28.6836 17.3088C28.0283 23.7356 22.5997 28.75 16 28.75C9.40023 28.75 3.97167 23.7356 3.31634 17.3088C3.24419 17.1494 3.2315 16.9717 3.27511 16.8072C3.25844 16.5403 3.24998 16.2711 3.24998 16C3.24998 8.95837 8.95835 3.25 16 3.25C22.5997 3.25 28.0282 8.26433 28.6836 14.691C28.7557 14.8504 28.7685 15.0281 28.7248 15.1927C28.7415 15.4597 28.75 15.7289 28.75 16C28.75 16.2711 28.7415 16.5403 28.7248 16.8072C28.7685 16.9717 28.7558 17.1494 28.6836 17.3088ZM16 4.75C10.9828 4.75 6.73276 8.03425 5.28239 12.5702C8.33349 9.79516 12.0886 8.24994 16 8.24994C19.9113 8.24994 23.6665 9.79516 26.7176 12.5702C25.2672 8.03425 21.0171 4.75 16 4.75Z" fill="currentColor" data-darkreader-inline-fill="" style="--darkreader-inline-fill:currentColor;"></path>
<path d="M14.5 20.2092C13.0341 19.6159 12 18.1787 12 16.5C12 14.2909 13.7909 12.5 16 12.5C17.6787 12.5 19.1159 13.5341 19.7092 15M16 16.5L18.5 24L20 20.5L23.5 19L16 16.5Z" stroke="currentColor" stroke-width="1.5" stroke-linecap="round" stroke-linejoin="round" data-darkreader-inline-stroke="" style="--darkreader-inline-stroke:currentColor;"></path>
</svg>