<svg width="22" height="22" fill="none" xmlns="http://www.w3.org/2000/svg"><g clip-path="url(#a)"><rect width="22" height="22" rx="4.125" transform="matrix(1 0 0 -1 0 22)" fill="#80E1D9" fill-opacity=".08" data-darkreader-inline-fill="" style="--darkreader-inline-fill:#7de0d8;"></rect><path fill-rule="evenodd" clip-rule="evenodd" d="M17.188 4.469H4.813a.344.344 0 0 0-.344.343v1.375c0 .19.154.344.343.344h12.375c.19 0 .344-.154.344-.343V4.813a.344.344 0 0 0-.343-.344Zm1.375.343c0-.759-.616-1.375-1.375-1.375H4.813c-.76 0-1.375.616-1.375 1.376v1.375c0 .759.615 1.375 1.374 1.375h12.375c.76 0 1.375-.616 1.375-1.375V4.813ZM6.188 15.47H4.813a.344.344 0 0 0-.344.344v1.374c0 .19.154.344.343.344h1.375c.19 0 .344-.154.344-.343v-1.375a.344.344 0 0 0-.343-.344Zm1.375.344c0-.76-.616-1.376-1.375-1.376H4.813c-.76 0-1.375.616-1.375 1.376v1.374c0 .76.615 1.375 1.374 1.375h1.375c.76 0 1.375-.615 1.375-1.375v-1.375Zm8.25-5.844h1.374c.19 0 .344.154.344.344v1.374c0 .19-.154.344-.343.344h-1.375a.344.344 0 0 1-.344-.344v-1.374c0-.19.154-.344.344-.344Zm1.374-1.031c.76 0 1.375.615 1.375 1.374v1.376c0 .759-.615 1.374-1.375 1.374h-1.375c-.759 0-1.374-.615-1.374-1.374v-1.376c0-.759.615-1.374 1.374-1.374h1.376Zm-2.316 8.593h2.316c.19 0 .344-.154.344-.343v-1.375a.344.344 0 0 0-.343-.344h-1.503c-1.09 0-2.127-.47-2.845-1.291l-2.348-2.683A4.469 4.469 0 0 0 7.13 9.969H4.813a.344.344 0 0 0-.344.344v1.374c0 .19.154.344.344.344h1.502c1.09 0 2.127.47 2.845 1.291l2.348 2.683a4.469 4.469 0 0 0 3.363 1.526Zm3.691-1.718c0-.76-.615-1.376-1.375-1.376h-1.502a2.75 2.75 0 0 1-2.07-.939l-2.347-2.682A5.5 5.5 0 0 0 7.13 8.938H4.813c-.76 0-1.375.615-1.375 1.374v1.376c0 .759.615 1.374 1.375 1.374h1.502a2.75 2.75 0 0 1 2.07.94l2.347 2.682a5.5 5.5 0 0 0 4.139 1.878h2.316c.76 0 1.375-.615 1.375-1.375v-1.375Z" fill="#80E1D9" data-darkreader-inline-fill="" style="--darkreader-inline-fill:#7de0d8;"></path><path d="M18.183 18.182v-4.364m0 0h-4.364m4.364 0-4.364 4.364" stroke="#fff" stroke-width="4.5" stroke-linecap="round" stroke-linejoin="round" data-darkreader-inline-stroke="" style="--darkreader-inline-stroke:#e8e6e3;"></path><path d="M18.183 18.182v-4.364m0 0h-4.364m4.364 0-4.364 4.364" stroke="#2A2A2F" stroke-width="1.4" stroke-linecap="round" stroke-linejoin="round" data-darkreader-inline-stroke="" style="--darkreader-inline-stroke:#ccc7c1;"></path></g><defs><clipPath id="a"><path fill="#fff" d="M0 0h22v22H0z" data-darkreader-inline-fill="" style="--darkreader-inline-fill:#e8e6e3;"></path></clipPath></defs></svg>