<svg xmlns="http://www.w3.org/2000/svg" width="32" height="32" fill="none" viewBox="0 0 32 32"><rect width="32" height="32" fill="#B2586E" fill-opacity=".08" rx="6" data-darkreader-inline-fill="" style="--darkreader-inline-fill:#b9677b;"></rect><path fill="#B2586E" fill-rule="evenodd" d="M7 6.5h18a.5.5 0 0 1 .5.5v8.623a.776.776 0 0 0-.014.013l-.83.78-.001.001a5.617 5.617 0 0 1-7.879-.244l-.683-.717a7.108 7.108 0 0 0-9.593-.644V7a.5.5 0 0 1 .5-.5zm-.5 10.242V25a.5.5 0 0 0 .5.5h18a.5.5 0 0 0 .5-.5v-7.326a7.116 7.116 0 0 1-9.81-.466l-.683-.717a5.609 5.609 0 0 0-7.652-.441l-.008.007-.847.685zM5 7a2 2 0 0 1 2-2h18a2 2 0 0 1 2 2v18a2 2 0 0 1-2 2H7a2 2 0 0 1-2-2V7z" clip-rule="evenodd" data-darkreader-inline-fill="" style="--darkreader-inline-fill:#b9677b;"></path></svg>