<svg xmlns="http://www.w3.org/2000/svg" width="32" height="32" fill="none" viewBox="0 0 32 32"><rect width="32" height="32" fill="#FFB27A" fill-opacity=".08" rx="6" data-darkreader-inline-fill="" style="--darkreader-inline-fill:#ffac6f;"></rect><path fill="#FFB27A" fill-rule="evenodd" d="M14.563 5.75a.75.75 0 1 0 0 1.5.75.75 0 0 0 0-1.5zm-2.25.75a2.25 2.25 0 1 1 4.5 0 2.25 2.25 0 0 1-4.5 0zm7.917 2.41a2.25 2.25 0 1 1 .833 4.34.75.75 0 1 0 0 1.5 3.75 3.75 0 1 0-3.675-4.5h-5.326a.75.75 0 0 0 0 1.5h8a.75.75 0 0 0 0-1.5h-1.121a2.246 2.246 0 0 1 1.29-1.34zm-7.028 4.22a.75.75 0 0 1 .75.75V16a.75.75 0 0 1-.105.383l-1.695 2.852a4.526 4.526 0 0 1 1.046-.026c1.309.09 2.173.842 2.854 1.433l.009.008c.723.628 1.262 1.091 2.058 1.205h.005c.466.07 1.362.002 2.672-1.1l-2.721-4.358a.75.75 0 0 1-.114-.397v-2.12a.75.75 0 0 1 1.5 0v1.905l2.838 4.546a.747.747 0 0 1 .199.319l1.235 1.978A2.522 2.522 0 0 1 21.65 26.5H10.475a2.52 2.52 0 0 1-2.117-3.815v-.002l1.267-2.13a.75.75 0 0 1 .07-.119l2.757-4.64V13.88a.75.75 0 0 1 .75-.75zM9.647 23.452l1.242-2.091a3.017 3.017 0 0 1 2.179-.657l.02.001c.759.05 1.28.46 1.99 1.077l.083.073c.657.573 1.497 1.305 2.743 1.485.957.142 2.207-.11 3.693-1.302l.865 1.387.004.006A1.022 1.022 0 0 1 21.628 25H10.496a1.022 1.022 0 0 1-.85-1.546v-.002z" clip-rule="evenodd" data-darkreader-inline-fill="" style="--darkreader-inline-fill:#ffac6f;"></path></svg>