<svg data-name="Layer 1" xmlns="http://www.w3.org/2000/svg" viewBox="0 0 22 22"><path d="M9.22 15.6l-2.7.4.39-2.73a1.74 1.74 0 0 1 .5-1l8.26-8.31a1.78 1.78 0 0 1 2.51 0l.33.33a1.77 1.77 0 0 1 0 2.5l-8.27 8.33a1.87 1.87 0 0 1-1.02.48zm-.87-3.58l2.08 2.08m4.03-8.17l2.08 2.08" fill="none" stroke="currentColor" stroke-linecap="round" stroke-linejoin="round" stroke-width="1.5" data-darkreader-inline-stroke="" style="--darkreader-inline-stroke:currentColor;"></path><path d="M19 11v6a2 2 0 0 1-2 2H5a2 2 0 0 1-2-2V5a2 2 0 0 1 2-2h6.87" fill="none" stroke="currentColor" stroke-linecap="round" stroke-linejoin="round" stroke-width="1.5" data-darkreader-inline-stroke="" style="--darkreader-inline-stroke:currentColor;"></path></svg>