<svg width="22" height="22" fill="none" xmlns="http://www.w3.org/2000/svg"><path d="M18.75 19.5H4.53A2.53 2.53 0 012 16.97V2.75a.75.75 0 011.5 0v14.22a1 1 0 001 1h14.25a.75.75 0 010 1.5v.03z" fill="currentColor" data-darkreader-inline-fill="" style="--darkreader-inline-fill:currentColor;"></path><path d="M13.67 19.5a.75.75 0 01-.75-.75v-3.23a.75.75 0 011.5 0v3.23a.76.76 0 01-.75.75zm5.33 0a.76.76 0 01-.75-.75v-3.22a.75.75 0 011.5 0v3.22a.76.76 0 01-.75.75zm-10.67 0a.76.76 0 01-.75-.75v-8.11a.75.75 0 011.5 0v8.11a.75.75 0 01-.75.75z" fill="currentColor" data-darkreader-inline-fill="" style="--darkreader-inline-fill:currentColor;"></path><path d="M18.92 16.28h-3.79a4.27 4.27 0 01-3-1.26l-3.29-3.27a2.79 2.79 0 00-2-.83h-.92a.75.75 0 010-1.5h.94a4.27 4.27 0 013.04 1.33L13.16 14a2.78 2.78 0 002 .82h3.78a.75.75 0 110 1.5l-.02-.04z" fill="currentColor" data-darkreader-inline-fill="" style="--darkreader-inline-fill:currentColor;"></path><path fill-rule="evenodd" clip-rule="evenodd" d="M15.074 2.865a.75.75 0 011.06 0L18.95 5.68a.75.75 0 010 1.06l-2.814 2.814a.75.75 0 11-1.06-1.06l1.742-1.743H9a.75.75 0 010-1.5h7.398l-1.324-1.324a.75.75 0 010-1.06z" fill="currentColor" data-darkreader-inline-fill="" style="--darkreader-inline-fill:currentColor;"></path></svg>