<svg width="22" height="22" fill="none" xmlns="http://www.w3.org/2000/svg"><path d="M18.75 19.75H4.53A2.53 2.53 0 012 17.22V3a.75.75 0 011.5 0v14.22a1 1 0 001 1h14.25a.75.75 0 010 1.5v.03z" fill="currentColor" data-darkreader-inline-fill="" style="--darkreader-inline-fill:currentColor;"></path><path d="M13.67 19.75a.75.75 0 01-.75-.75v-3.23a.75.75 0 011.5 0V19a.76.76 0 01-.75.75zm5.33 0a.76.76 0 01-.75-.75v-3.22a.75.75 0 011.5 0V19a.76.76 0 01-.75.75zm-10.67 0a.76.76 0 01-.75-.75v-8.11a.75.75 0 011.5 0V19a.75.75 0 01-.75.75z" fill="currentColor" data-darkreader-inline-fill="" style="--darkreader-inline-fill:currentColor;"></path><path d="M18.92 16.53h-3.79a4.27 4.27 0 01-3-1.26L8.84 12a2.79 2.79 0 00-2-.83h-.92a.75.75 0 010-1.5h.94A4.27 4.27 0 019.9 11l3.26 3.25a2.78 2.78 0 002 .82h3.78a.75.75 0 110 1.5l-.02-.04z" fill="currentColor" data-darkreader-inline-fill="" style="--darkreader-inline-fill:currentColor;"></path><path fill-rule="evenodd" clip-rule="evenodd" d="M12.47 9.53a.75.75 0 010-1.06l6-6a.75.75 0 111.06 1.06l-6 6a.75.75 0 01-1.06 0z" fill="currentColor" data-darkreader-inline-fill="" style="--darkreader-inline-fill:currentColor;"></path><path fill-rule="evenodd" clip-rule="evenodd" d="M17.5 6.75a.75.75 0 100 1.5.75.75 0 000-1.5zm-2.25.75a2.25 2.25 0 114.5 0 2.25 2.25 0 01-4.5 0z" fill="currentColor" data-darkreader-inline-fill="" style="--darkreader-inline-fill:currentColor;"></path><path fill-rule="evenodd" clip-rule="evenodd" d="M14.5 3.75a.75.75 0 100 1.5.75.75 0 000-1.5zm-2.25.75a2.25 2.25 0 114.5 0 2.25 2.25 0 01-4.5 0z" fill="currentColor" data-darkreader-inline-fill="" style="--darkreader-inline-fill:currentColor;"></path></svg>