<svg fill="none" xmlns="http://www.w3.org/2000/svg" viewBox="0 0 22 22"><path d="M0 0h22v22H0z"></path><path d="m6.11 9.598 4.132 2.142c.225.115.489.177.758.177.27 0 .533-.062.758-.177l4.133-2.143c.187-.097.341-.23.447-.385a.889.889 0 0 0 .162-.504.889.889 0 0 0-.162-.503 1.225 1.225 0 0 0-.447-.386l-4.133-2.142A1.673 1.673 0 0 0 11 5.5c-.27 0-.533.061-.758.177L6.11 7.819c-.187.098-.34.23-.447.386a.888.888 0 0 0-.162.503c0 .176.056.349.162.504.106.155.26.288.447.386ZM14.308 11.917l1.644.812c.17.086.308.198.403.327a.7.7 0 0 1 .145.417.7.7 0 0 1-.145.416c-.095.13-.233.242-.403.327l-4.164 2.106c-.23.116-.509.178-.795.178-.286 0-.564-.062-.795-.178l-4.15-2.106a1.127 1.127 0 0 1-.403-.327.7.7 0 0 1-.145-.416.7.7 0 0 1 .145-.417c.095-.129.233-.24.403-.327l1.644-.812" stroke="currentColor" stroke-width="1.5" stroke-linecap="round" stroke-linejoin="round" data-darkreader-inline-stroke="" style="--darkreader-inline-stroke:currentColor;"></path></svg>