<svg data-name="Layer 1" xmlns="http://www.w3.org/2000/svg" viewBox="0 0 22 22">
  <path d="M11 19H4.6A1.6 1.6 0 0 1 3 17.4V4.6A1.6 1.6 0 0 1 4.6 3h12.8A1.6 1.6 0 0 1 19 4.6V11M7 15.8V7m4 8.8v-4m4-.8V8.6 15.8V8.6" fill="none" stroke="currentColor" stroke-linecap="round" stroke-linejoin="round" stroke-width="1.5" data-darkreader-inline-stroke="" style="--darkreader-inline-stroke:currentColor;"></path>
  <path transform="rotate(180,11,11)" d="M11 19H4.6A1.6 1.6 0 0 1 3 17.4V4.6A1.6 1.6 0 0 1 4.6 3h12.8A1.6 1.6 0 0 1 19 4.6V11" fill="none" stroke="currentColor" stroke-linecap="round" stroke-linejoin="round" stroke-width="1.5" data-darkreader-inline-stroke="" style="--darkreader-inline-stroke:currentColor;"></path>
</svg>