<svg xmlns="http://www.w3.org/2000/svg" width="400" height="200" fill="none" viewBox="0 0 400 200"><mask id="a" fill="#fff"><path fill-rule="evenodd" d="M76.5 70a2.5 2.5 0 1 1-5 0 2.5 2.5 0 0 1 5 0zm82.5 2.5a2.5 2.5 0 1 0 0-5 2.5 2.5 0 0 0 0 5zm32 17a2.5 2.5 0 1 0 0-5 2.5 2.5 0 0 0 0 5zm43 0a2.5 2.5 0 1 0 0-5 2.5 2.5 0 0 0 0 5zm42.5-2.5a2.5 2.5 0 1 1-5 0 2.5 2.5 0 0 1 5 0zm-72-17a2.5 2.5 0 1 1-5 0 2.5 2.5 0 0 1 5 0zm39.5 2.5a2.5 2.5 0 1 0 0-5 2.5 2.5 0 0 0 0 5zm43.5-2.5a2.5 2.5 0 1 1-5 0 2.5 2.5 0 0 1 5 0zM180 72.5a2.5 2.5 0 1 0 0-5 2.5 2.5 0 0 0 0 5zm45.5-2.5a2.5 2.5 0 1 1-5 0 2.5 2.5 0 0 1 5 0zm38.5 2.5a2.5 2.5 0 1 0 0-5 2.5 2.5 0 0 0 0 5zM256.5 87a2.5 2.5 0 1 1-5 0 2.5 2.5 0 0 1 5 0zM169 89.5a2.5 2.5 0 1 0 0-5 2.5 2.5 0 0 0 0 5zm45.5-2.5a2.5 2.5 0 1 1-5 0 2.5 2.5 0 0 1 5 0zm84 0a2.5 2.5 0 1 1-5 0 2.5 2.5 0 0 1 5 0zM105 89.5a2.5 2.5 0 1 0 0-5 2.5 2.5 0 0 0 0 5zm-10-17a2.5 2.5 0 1 0 0-5 2.5 2.5 0 0 0 0 5zM86.5 87a2.5 2.5 0 1 1-5 0 2.5 2.5 0 0 1 5 0zM191 177.5a2.5 2.5 0 1 0 0-5 2.5 2.5 0 0 0 0 5zm45.5-2.5a2.5 2.5 0 1 1-5 0 2.5 2.5 0 0 1 5 0zm37.5 2.5a2.5 2.5 0 1 0 0-5 2.5 2.5 0 0 0 0 5zM161.5 158a2.5 2.5 0 1 1-5 0 2.5 2.5 0 0 1 5 0zm40.5 2.5a2.5 2.5 0 1 0 0-5 2.5 2.5 0 0 0 0 5zm44.5-2.5a2.5 2.5 0 1 1-5 0 2.5 2.5 0 0 1 5 0zm38.5 2.5a2.5 2.5 0 1 0 0-5 2.5 2.5 0 0 0 0 5zM182.5 158a2.5 2.5 0 1 1-5 0 2.5 2.5 0 0 1 5 0zm40.5 2.5a2.5 2.5 0 1 0 0-5 2.5 2.5 0 0 0 0 5zm43.5-2.5a2.5 2.5 0 1 1-5 0 2.5 2.5 0 0 1 5 0zM254 177.5a2.5 2.5 0 1 0 0-5 2.5 2.5 0 0 0 0 5zm-82.5-2.5a2.5 2.5 0 1 1-5 0 2.5 2.5 0 0 1 5 0zm40.5 2.5a2.5 2.5 0 1 0 0-5 2.5 2.5 0 0 0 0 5zm84 0a2.5 2.5 0 1 0 0-5 2.5 2.5 0 0 0 0 5zM107.5 175a2.5 2.5 0 1 1-5 0 2.5 2.5 0 0 1 5 0zM74 160.5a2.5 2.5 0 1 0 0-5 2.5 2.5 0 0 0 0 5zm23.5-2.5a2.5 2.5 0 1 1-5 0 2.5 2.5 0 0 1 5 0zM84 177.5a2.5 2.5 0 1 0 0-5 2.5 2.5 0 0 0 0 5z" clip-rule="evenodd"/></mask><path fill="#7B80FF" fill-opacity=".15" fill-rule="evenodd" d="M76.5 70a2.5 2.5 0 1 1-5 0 2.5 2.5 0 0 1 5 0zm82.5 2.5a2.5 2.5 0 1 0 0-5 2.5 2.5 0 0 0 0 5zm32 17a2.5 2.5 0 1 0 0-5 2.5 2.5 0 0 0 0 5zm43 0a2.5 2.5 0 1 0 0-5 2.5 2.5 0 0 0 0 5zm42.5-2.5a2.5 2.5 0 1 1-5 0 2.5 2.5 0 0 1 5 0zm-72-17a2.5 2.5 0 1 1-5 0 2.5 2.5 0 0 1 5 0zm39.5 2.5a2.5 2.5 0 1 0 0-5 2.5 2.5 0 0 0 0 5zm43.5-2.5a2.5 2.5 0 1 1-5 0 2.5 2.5 0 0 1 5 0zM180 72.5a2.5 2.5 0 1 0 0-5 2.5 2.5 0 0 0 0 5zm45.5-2.5a2.5 2.5 0 1 1-5 0 2.5 2.5 0 0 1 5 0zm38.5 2.5a2.5 2.5 0 1 0 0-5 2.5 2.5 0 0 0 0 5zM256.5 87a2.5 2.5 0 1 1-5 0 2.5 2.5 0 0 1 5 0zM169 89.5a2.5 2.5 0 1 0 0-5 2.5 2.5 0 0 0 0 5zm45.5-2.5a2.5 2.5 0 1 1-5 0 2.5 2.5 0 0 1 5 0zm84 0a2.5 2.5 0 1 1-5 0 2.5 2.5 0 0 1 5 0zM105 89.5a2.5 2.5 0 1 0 0-5 2.5 2.5 0 0 0 0 5zm-10-17a2.5 2.5 0 1 0 0-5 2.5 2.5 0 0 0 0 5zM86.5 87a2.5 2.5 0 1 1-5 0 2.5 2.5 0 0 1 5 0zM191 177.5a2.5 2.5 0 1 0 0-5 2.5 2.5 0 0 0 0 5zm45.5-2.5a2.5 2.5 0 1 1-5 0 2.5 2.5 0 0 1 5 0zm37.5 2.5a2.5 2.5 0 1 0 0-5 2.5 2.5 0 0 0 0 5zM161.5 158a2.5 2.5 0 1 1-5 0 2.5 2.5 0 0 1 5 0zm40.5 2.5a2.5 2.5 0 1 0 0-5 2.5 2.5 0 0 0 0 5zm44.5-2.5a2.5 2.5 0 1 1-5 0 2.5 2.5 0 0 1 5 0zm38.5 2.5a2.5 2.5 0 1 0 0-5 2.5 2.5 0 0 0 0 5zM182.5 158a2.5 2.5 0 1 1-5 0 2.5 2.5 0 0 1 5 0zm40.5 2.5a2.5 2.5 0 1 0 0-5 2.5 2.5 0 0 0 0 5zm43.5-2.5a2.5 2.5 0 1 1-5 0 2.5 2.5 0 0 1 5 0zM254 177.5a2.5 2.5 0 1 0 0-5 2.5 2.5 0 0 0 0 5zm-82.5-2.5a2.5 2.5 0 1 1-5 0 2.5 2.5 0 0 1 5 0zm40.5 2.5a2.5 2.5 0 1 0 0-5 2.5 2.5 0 0 0 0 5zm84 0a2.5 2.5 0 1 0 0-5 2.5 2.5 0 0 0 0 5zM107.5 175a2.5 2.5 0 1 1-5 0 2.5 2.5 0 0 1 5 0zM74 160.5a2.5 2.5 0 1 0 0-5 2.5 2.5 0 0 0 0 5zm23.5-2.5a2.5 2.5 0 1 1-5 0 2.5 2.5 0 0 1 5 0zM84 177.5a2.5 2.5 0 1 0 0-5 2.5 2.5 0 0 0 0 5z" clip-rule="evenodd"/><path fill="#7B80FF" fill-opacity=".15" d="M74 75.5a5.5 5.5 0 0 0 5.5-5.5h-6a.5.5 0 0 1 .5-.5v6zM68.5 70a5.5 5.5 0 0 0 5.5 5.5v-6a.5.5 0 0 1 .5.5h-6zm5.5-5.5a5.5 5.5 0 0 0-5.5 5.5h6a.5.5 0 0 1-.5.5v-6zm5.5 5.5a5.5 5.5 0 0 0-5.5-5.5v6a.5.5 0 0 1-.5-.5h6zm79 0a.5.5 0 0 1 .5-.5v6a5.5 5.5 0 0 0 5.5-5.5h-6zm.5.5a.5.5 0 0 1-.5-.5h6a5.5 5.5 0 0 0-5.5-5.5v6zm.5-.5a.5.5 0 0 1-.5.5v-6a5.5 5.5 0 0 0-5.5 5.5h6zm-.5-.5a.5.5 0 0 1 .5.5h-6a5.5 5.5 0 0 0 5.5 5.5v-6zM190.5 87a.5.5 0 0 1 .5-.5v6a5.5 5.5 0 0 0 5.5-5.5h-6zm.5.5a.5.5 0 0 1-.5-.5h6a5.5 5.5 0 0 0-5.5-5.5v6zm.5-.5a.5.5 0 0 1-.5.5v-6a5.5 5.5 0 0 0-5.5 5.5h6zm-.5-.5a.5.5 0 0 1 .5.5h-6a5.5 5.5 0 0 0 5.5 5.5v-6zm42.5.5a.5.5 0 0 1 .5-.5v6a5.5 5.5 0 0 0 5.5-5.5h-6zm.5.5a.5.5 0 0 1-.5-.5h6a5.5 5.5 0 0 0-5.5-5.5v6zm.5-.5a.5.5 0 0 1-.5.5v-6a5.5 5.5 0 0 0-5.5 5.5h6zm-.5-.5a.5.5 0 0 1 .5.5h-6a5.5 5.5 0 0 0 5.5 5.5v-6zm40 6a5.5 5.5 0 0 0 5.5-5.5h-6a.5.5 0 0 1 .5-.5v6zm-5.5-5.5a5.5 5.5 0 0 0 5.5 5.5v-6a.5.5 0 0 1 .5.5h-6zm5.5-5.5a5.5 5.5 0 0 0-5.5 5.5h6a.5.5 0 0 1-.5.5v-6zm5.5 5.5a5.5 5.5 0 0 0-5.5-5.5v6a.5.5 0 0 1-.5-.5h6zM202 75.5a5.5 5.5 0 0 0 5.5-5.5h-6a.5.5 0 0 1 .5-.5v6zm-5.5-5.5a5.5 5.5 0 0 0 5.5 5.5v-6a.5.5 0 0 1 .5.5h-6zm5.5-5.5a5.5 5.5 0 0 0-5.5 5.5h6a.5.5 0 0 1-.5.5v-6zm5.5 5.5a5.5 5.5 0 0 0-5.5-5.5v6a.5.5 0 0 1-.5-.5h6zm36 0a.5.5 0 0 1 .5-.5v6a5.5 5.5 0 0 0 5.5-5.5h-6zm.5.5a.5.5 0 0 1-.5-.5h6a5.5 5.5 0 0 0-5.5-5.5v6zm.5-.5a.5.5 0 0 1-.5.5v-6a5.5 5.5 0 0 0-5.5 5.5h6zm-.5-.5a.5.5 0 0 1 .5.5h-6a5.5 5.5 0 0 0 5.5 5.5v-6zm41 6a5.5 5.5 0 0 0 5.5-5.5h-6a.5.5 0 0 1 .5-.5v6zm-5.5-5.5a5.5 5.5 0 0 0 5.5 5.5v-6a.5.5 0 0 1 .5.5h-6zm5.5-5.5a5.5 5.5 0 0 0-5.5 5.5h6a.5.5 0 0 1-.5.5v-6zm5.5 5.5a5.5 5.5 0 0 0-5.5-5.5v6a.5.5 0 0 1-.5-.5h6zm-111 0a.5.5 0 0 1 .5-.5v6a5.5 5.5 0 0 0 5.5-5.5h-6zm.5.5a.5.5 0 0 1-.5-.5h6a5.5 5.5 0 0 0-5.5-5.5v6zm.5-.5a.5.5 0 0 1-.5.5v-6a5.5 5.5 0 0 0-5.5 5.5h6zm-.5-.5a.5.5 0 0 1 .5.5h-6a5.5 5.5 0 0 0 5.5 5.5v-6zm43 6a5.5 5.5 0 0 0 5.5-5.5h-6a.5.5 0 0 1 .5-.5v6zm-5.5-5.5a5.5 5.5 0 0 0 5.5 5.5v-6a.5.5 0 0 1 .5.5h-6zm5.5-5.5a5.5 5.5 0 0 0-5.5 5.5h6a.5.5 0 0 1-.5.5v-6zm5.5 5.5a5.5 5.5 0 0 0-5.5-5.5v6a.5.5 0 0 1-.5-.5h6zm35 0a.5.5 0 0 1 .5-.5v6a5.5 5.5 0 0 0 5.5-5.5h-6zm.5.5a.5.5 0 0 1-.5-.5h6a5.5 5.5 0 0 0-5.5-5.5v6zm.5-.5a.5.5 0 0 1-.5.5v-6a5.5 5.5 0 0 0-5.5 5.5h6zm-.5-.5a.5.5 0 0 1 .5.5h-6a5.5 5.5 0 0 0 5.5 5.5v-6zm-10 23a5.5 5.5 0 0 0 5.5-5.5h-6a.5.5 0 0 1 .5-.5v6zm-5.5-5.5a5.5 5.5 0 0 0 5.5 5.5v-6a.5.5 0 0 1 .5.5h-6zm5.5-5.5a5.5 5.5 0 0 0-5.5 5.5h6a.5.5 0 0 1-.5.5v-6zm5.5 5.5a5.5 5.5 0 0 0-5.5-5.5v6a.5.5 0 0 1-.5-.5h6zm-91 0a.5.5 0 0 1 .5-.5v6a5.5 5.5 0 0 0 5.5-5.5h-6zm.5.5a.5.5 0 0 1-.5-.5h6a5.5 5.5 0 0 0-5.5-5.5v6zm.5-.5a.5.5 0 0 1-.5.5v-6a5.5 5.5 0 0 0-5.5 5.5h6zm-.5-.5a.5.5 0 0 1 .5.5h-6a5.5 5.5 0 0 0 5.5 5.5v-6zm43 6a5.5 5.5 0 0 0 5.5-5.5h-6a.5.5 0 0 1 .5-.5v6zm-5.5-5.5a5.5 5.5 0 0 0 5.5 5.5v-6a.5.5 0 0 1 .5.5h-6zm5.5-5.5a5.5 5.5 0 0 0-5.5 5.5h6a.5.5 0 0 1-.5.5v-6zm5.5 5.5a5.5 5.5 0 0 0-5.5-5.5v6a.5.5 0 0 1-.5-.5h6zm78.5 5.5a5.5 5.5 0 0 0 5.5-5.5h-6a.5.5 0 0 1 .5-.5v6zm-5.5-5.5a5.5 5.5 0 0 0 5.5 5.5v-6a.5.5 0 0 1 .5.5h-6zm5.5-5.5a5.5 5.5 0 0 0-5.5 5.5h6a.5.5 0 0 1-.5.5v-6zm5.5 5.5a5.5 5.5 0 0 0-5.5-5.5v6a.5.5 0 0 1-.5-.5h6zm-197 0a.5.5 0 0 1 .5-.5v6a5.5 5.5 0 0 0 5.5-5.5h-6zm.5.5a.5.5 0 0 1-.5-.5h6a5.5 5.5 0 0 0-5.5-5.5v6zm.5-.5a.5.5 0 0 1-.5.5v-6a5.5 5.5 0 0 0-5.5 5.5h6zm-.5-.5a.5.5 0 0 1 .5.5h-6a5.5 5.5 0 0 0 5.5 5.5v-6zM94.5 70a.5.5 0 0 1 .5-.5v6a5.5 5.5 0 0 0 5.5-5.5h-6zm.5.5a.5.5 0 0 1-.5-.5h6a5.5 5.5 0 0 0-5.5-5.5v6zm.5-.5a.5.5 0 0 1-.5.5v-6a5.5 5.5 0 0 0-5.5 5.5h6zm-.5-.5a.5.5 0 0 1 .5.5h-6a5.5 5.5 0 0 0 5.5 5.5v-6zm-11 23a5.5 5.5 0 0 0 5.5-5.5h-6a.5.5 0 0 1 .5-.5v6zM78.5 87a5.5 5.5 0 0 0 5.5 5.5v-6a.5.5 0 0 1 .5.5h-6zm5.5-5.5a5.5 5.5 0 0 0-5.5 5.5h6a.5.5 0 0 1-.5.5v-6zm5.5 5.5a5.5 5.5 0 0 0-5.5-5.5v6a.5.5 0 0 1-.5-.5h6zm101 88a.5.5 0 0 1 .5-.5v6a5.5 5.5 0 0 0 5.5-5.5h-6zm.5.5a.5.5 0 0 1-.5-.5h6a5.5 5.5 0 0 0-5.5-5.5v6zm.5-.5a.5.5 0 0 1-.5.5v-6a5.5 5.5 0 0 0-5.5 5.5h6zm-.5-.5a.5.5 0 0 1 .5.5h-6a5.5 5.5 0 0 0 5.5 5.5v-6zm43 6a5.5 5.5 0 0 0 5.5-5.5h-6a.5.5 0 0 1 .5-.5v6zm-5.5-5.5a5.5 5.5 0 0 0 5.5 5.5v-6a.5.5 0 0 1 .5.5h-6zm5.5-5.5a5.5 5.5 0 0 0-5.5 5.5h6a.5.5 0 0 1-.5.5v-6zm5.5 5.5a5.5 5.5 0 0 0-5.5-5.5v6a.5.5 0 0 1-.5-.5h6zm34 0a.5.5 0 0 1 .5-.5v6a5.5 5.5 0 0 0 5.5-5.5h-6zm.5.5a.5.5 0 0 1-.5-.5h6a5.5 5.5 0 0 0-5.5-5.5v6zm.5-.5a.5.5 0 0 1-.5.5v-6a5.5 5.5 0 0 0-5.5 5.5h6zm-.5-.5a.5.5 0 0 1 .5.5h-6a5.5 5.5 0 0 0 5.5 5.5v-6zm-115-11a5.5 5.5 0 0 0 5.5-5.5h-6a.5.5 0 0 1 .5-.5v6zm-5.5-5.5a5.5 5.5 0 0 0 5.5 5.5v-6a.5.5 0 0 1 .5.5h-6zm5.5-5.5a5.5 5.5 0 0 0-5.5 5.5h6a.5.5 0 0 1-.5.5v-6zm5.5 5.5a5.5 5.5 0 0 0-5.5-5.5v6a.5.5 0 0 1-.5-.5h6zm37 0a.5.5 0 0 1 .5-.5v6a5.5 5.5 0 0 0 5.5-5.5h-6zm.5.5a.5.5 0 0 1-.5-.5h6a5.5 5.5 0 0 0-5.5-5.5v6zm.5-.5a.5.5 0 0 1-.5.5v-6a5.5 5.5 0 0 0-5.5 5.5h6zm-.5-.5a.5.5 0 0 1 .5.5h-6a5.5 5.5 0 0 0 5.5 5.5v-6zm42 6a5.5 5.5 0 0 0 5.5-5.5h-6a.5.5 0 0 1 .5-.5v6zm-5.5-5.5a5.5 5.5 0 0 0 5.5 5.5v-6a.5.5 0 0 1 .5.5h-6zm5.5-5.5a5.5 5.5 0 0 0-5.5 5.5h6a.5.5 0 0 1-.5.5v-6zm5.5 5.5a5.5 5.5 0 0 0-5.5-5.5v6a.5.5 0 0 1-.5-.5h6zm35 0a.5.5 0 0 1 .5-.5v6a5.5 5.5 0 0 0 5.5-5.5h-6zm.5.5a.5.5 0 0 1-.5-.5h6a5.5 5.5 0 0 0-5.5-5.5v6zm.5-.5a.5.5 0 0 1-.5.5v-6a5.5 5.5 0 0 0-5.5 5.5h6zm-.5-.5a.5.5 0 0 1 .5.5h-6a5.5 5.5 0 0 0 5.5 5.5v-6zm-105 6a5.5 5.5 0 0 0 5.5-5.5h-6a.5.5 0 0 1 .5-.5v6zm-5.5-5.5a5.5 5.5 0 0 0 5.5 5.5v-6a.5.5 0 0 1 .5.5h-6zm5.5-5.5a5.5 5.5 0 0 0-5.5 5.5h6a.5.5 0 0 1-.5.5v-6zm5.5 5.5a5.5 5.5 0 0 0-5.5-5.5v6a.5.5 0 0 1-.5-.5h6zm37 0a.5.5 0 0 1 .5-.5v6a5.5 5.5 0 0 0 5.5-5.5h-6zm.5.5a.5.5 0 0 1-.5-.5h6a5.5 5.5 0 0 0-5.5-5.5v6zm.5-.5a.5.5 0 0 1-.5.5v-6a5.5 5.5 0 0 0-5.5 5.5h6zm-.5-.5a.5.5 0 0 1 .5.5h-6a5.5 5.5 0 0 0 5.5 5.5v-6zm41 6a5.5 5.5 0 0 0 5.5-5.5h-6a.5.5 0 0 1 .5-.5v6zm-5.5-5.5a5.5 5.5 0 0 0 5.5 5.5v-6a.5.5 0 0 1 .5.5h-6zm5.5-5.5a5.5 5.5 0 0 0-5.5 5.5h6a.5.5 0 0 1-.5.5v-6zm5.5 5.5a5.5 5.5 0 0 0-5.5-5.5v6a.5.5 0 0 1-.5-.5h6zm-16 17a.5.5 0 0 1 .5-.5v6a5.5 5.5 0 0 0 5.5-5.5h-6zm.5.5a.5.5 0 0 1-.5-.5h6a5.5 5.5 0 0 0-5.5-5.5v6zm.5-.5a.5.5 0 0 1-.5.5v-6a5.5 5.5 0 0 0-5.5 5.5h6zm-.5-.5a.5.5 0 0 1 .5.5h-6a5.5 5.5 0 0 0 5.5 5.5v-6zm-85 6a5.5 5.5 0 0 0 5.5-5.5h-6a.5.5 0 0 1 .5-.5v6zm-5.5-5.5a5.5 5.5 0 0 0 5.5 5.5v-6a.5.5 0 0 1 .5.5h-6zm5.5-5.5a5.5 5.5 0 0 0-5.5 5.5h6a.5.5 0 0 1-.5.5v-6zm5.5 5.5a5.5 5.5 0 0 0-5.5-5.5v6a.5.5 0 0 1-.5-.5h6zm37 0a.5.5 0 0 1 .5-.5v6a5.5 5.5 0 0 0 5.5-5.5h-6zm.5.5a.5.5 0 0 1-.5-.5h6a5.5 5.5 0 0 0-5.5-5.5v6zm.5-.5a.5.5 0 0 1-.5.5v-6a5.5 5.5 0 0 0-5.5 5.5h6zm-.5-.5a.5.5 0 0 1 .5.5h-6a5.5 5.5 0 0 0 5.5 5.5v-6zm83.5.5a.5.5 0 0 1 .5-.5v6a5.5 5.5 0 0 0 5.5-5.5h-6zm.5.5a.5.5 0 0 1-.5-.5h6a5.5 5.5 0 0 0-5.5-5.5v6zm.5-.5a.5.5 0 0 1-.5.5v-6a5.5 5.5 0 0 0-5.5 5.5h6zm-.5-.5a.5.5 0 0 1 .5.5h-6a5.5 5.5 0 0 0 5.5 5.5v-6zm-191 6a5.5 5.5 0 0 0 5.5-5.5h-6a.5.5 0 0 1 .5-.5v6zm-5.5-5.5a5.5 5.5 0 0 0 5.5 5.5v-6a.5.5 0 0 1 .5.5h-6zm5.5-5.5a5.5 5.5 0 0 0-5.5 5.5h6a.5.5 0 0 1-.5.5v-6zm5.5 5.5a5.5 5.5 0 0 0-5.5-5.5v6a.5.5 0 0 1-.5-.5h6zm-37-17a.5.5 0 0 1 .5-.5v6a5.5 5.5 0 0 0 5.5-5.5h-6zm.5.5a.5.5 0 0 1-.5-.5h6a5.5 5.5 0 0 0-5.5-5.5v6zm.5-.5a.5.5 0 0 1-.5.5v-6a5.5 5.5 0 0 0-5.5 5.5h6zm-.5-.5a.5.5 0 0 1 .5.5h-6a5.5 5.5 0 0 0 5.5 5.5v-6zm21 6a5.5 5.5 0 0 0 5.5-5.5h-6a.5.5 0 0 1 .5-.5v6zm-5.5-5.5a5.5 5.5 0 0 0 5.5 5.5v-6a.5.5 0 0 1 .5.5h-6zm5.5-5.5a5.5 5.5 0 0 0-5.5 5.5h6a.5.5 0 0 1-.5.5v-6zm5.5 5.5a5.5 5.5 0 0 0-5.5-5.5v6a.5.5 0 0 1-.5-.5h6zm-17 17a.5.5 0 0 1 .5-.5v6a5.5 5.5 0 0 0 5.5-5.5h-6zm.5.5a.5.5 0 0 1-.5-.5h6a5.5 5.5 0 0 0-5.5-5.5v6zm.5-.5a.5.5 0 0 1-.5.5v-6a5.5 5.5 0 0 0-5.5 5.5h6zm-.5-.5a.5.5 0 0 1 .5.5h-6a5.5 5.5 0 0 0 5.5 5.5v-6z" mask="url(#a)"/><path fill="#7B80FF" fill-opacity=".3" fill-rule="evenodd" d="M130.227 55.207l13.506-21.69-12.244-19.24-26.717 41.232 26.717 42.17 12.094-19.437-13.356-21.449a1.497 1.497 0 0 1 0-1.586zm2.541-44.508l12.724 19.994 12.445-19.986c.274-.44.756-.707 1.274-.707h166.504a1.5 1.5 0 0 1 1.273.706l13.892 22.25 13.892 22.25a1.498 1.498 0 0 1 0 1.589L327.796 100l13.084 20.956 13.892 22.25a1.498 1.498 0 0 1 0 1.589l-27.784 44.5a1.5 1.5 0 0 1-1.273.705H159.211a1.5 1.5 0 0 1-1.274-.707L145.35 169.08l-12.574 20.209a1.5 1.5 0 0 1-1.276.711H75.01a1.5 1.5 0 0 1-1.268-.697l-28.506-44.995a1.494 1.494 0 0 1-.236-.813 1.502 1.502 0 0 1 .244-.815l27.663-42.695-27.671-43.677a1.5 1.5 0 0 1-.029-1.569l.015-.024.023-.036L73.75 10.684A1.5 1.5 0 0 1 75.008 10h56.466a1.508 1.508 0 0 1 1.257.645l.036.054zm192.835 175.149L351.732 144l-13.397-21.455-12.732-20.392-12.833 20.396L299.272 144l26.331 41.848zM322.155 102H159.421l-24.909 40h162.474l13.244-21.049L322.155 102zm-25.798 43l26.427 42h-162.74l-26.154-42h162.467zm-152.774 21.242l-13.356-21.449a1.498 1.498 0 0 1-.206-1.042 1.5 1.5 0 0 1 .88-1.626l12.832-20.607-12.244-19.242-26.717 41.233 26.717 42.17 12.094-19.437zm1.909-47.549L157.132 100 145.35 81.08l-11.763 18.906 11.905 18.707zM322.354 98H159.421l-25.22-40.5h162.474L322.354 98zm-220.189 47H49.226l26.609 42h52.939l-26.609-42zm.01-3l25.918-40H75.177l-25.918 40h52.916zM75.825 13L49.259 54h52.916l26.566-41H75.825zM75.2 98L49.226 57h52.939l25.975 41H75.201zm9.182-77a6.5 6.5 0 0 0-5.517 3.064L66.63 43.707A1.5 1.5 0 0 0 67.903 46h24.714a6.5 6.5 0 0 0 5.517-3.063l12.236-19.644c.622-.999-.096-2.293-1.273-2.293H84.383zm-8.064 1.477A9.5 9.5 0 0 1 84.383 18h24.714c3.531 0 5.687 3.882 3.82 6.88l-12.236 19.643A9.5 9.5 0 0 1 92.617 49H67.903c-3.531 0-5.687-3.882-3.82-6.879L76.32 22.477zm2.547 89.587A6.499 6.499 0 0 1 84.383 109h24.714a1.5 1.5 0 0 1 1.273 2.293l-12.236 19.644A6.5 6.5 0 0 1 92.617 134H67.903a1.5 1.5 0 0 1-1.273-2.293l12.236-19.643zM84.383 106a9.501 9.501 0 0 0-8.064 4.477l-12.236 19.644c-1.867 2.997.289 6.879 3.82 6.879h24.714a9.5 9.5 0 0 0 8.064-4.477l12.236-19.644c1.867-2.997-.289-6.879-3.82-6.879H84.383zm75.661-93l-25.843 41.5h162.474L322.988 13H160.044zm165.662 1.317L299.276 56l26.43 41.684L351.732 56l-13.397-21.455-12.629-20.228zM175.591 37.142C173.16 38.27 170.272 39 166.5 39a1.5 1.5 0 0 1 0-3c3.353 0 5.809-.643 7.831-1.58 2.051-.95 3.707-2.221 5.502-3.607l.048-.037c1.754-1.354 3.648-2.816 6.028-3.918C188.34 25.732 191.228 25 195 25c3.772 0 6.66.732 9.091 1.858 2.38 1.102 4.274 2.564 6.028 3.918l.048.037c1.795 1.386 3.451 2.657 5.502 3.607 2.022.937 4.478 1.58 7.831 1.58 3.353 0 5.809-.643 7.831-1.58 2.051-.95 3.707-2.221 5.502-3.607l.048-.037c1.754-1.354 3.648-2.816 6.028-3.918C245.34 25.732 248.228 25 252 25c3.772 0 6.66.732 9.091 1.858 2.38 1.102 4.274 2.564 6.028 3.918l.048.037c1.795 1.386 3.451 2.657 5.502 3.607 2.022.937 4.478 1.58 7.831 1.58a1.5 1.5 0 0 1 0 3c-3.772 0-6.66-.731-9.091-1.858-2.38-1.102-4.274-2.564-6.028-3.918l-.048-.036c-1.795-1.386-3.451-2.658-5.502-3.608-2.022-.936-4.478-1.58-7.831-1.58-3.353 0-5.809.644-7.831 1.58-2.051.95-3.707 2.222-5.502 3.608l-.048.036c-1.754 1.354-3.648 2.816-6.028 3.919C230.16 38.268 227.272 39 223.5 39c-3.772 0-6.66-.731-9.091-1.858-2.38-1.102-4.274-2.564-6.028-3.917l-.048-.037c-1.795-1.386-3.451-2.658-5.502-3.608-2.022-.936-4.478-1.58-7.831-1.58-3.353 0-5.809.644-7.831 1.58-2.051.95-3.707 2.222-5.502 3.608l-.048.036c-1.754 1.354-3.648 2.816-6.028 3.919zM166.5 127c3.772 0 6.66-.731 9.091-1.857 2.38-1.103 4.274-2.565 6.028-3.918v-.001l.048-.036c1.795-1.386 3.451-2.658 5.502-3.608 2.022-.936 4.478-1.58 7.831-1.58 3.353 0 5.809.644 7.831 1.58 2.051.95 3.707 2.222 5.502 3.608l.048.036v.001c1.754 1.353 3.648 2.815 6.028 3.918 2.431 1.126 5.319 1.857 9.091 1.857 3.772 0 6.66-.731 9.091-1.857 2.38-1.103 4.274-2.565 6.028-3.918v-.001l.048-.036c1.795-1.386 3.451-2.658 5.502-3.608 2.022-.936 4.478-1.58 7.831-1.58 3.353 0 5.809.644 7.831 1.58 2.051.95 3.707 2.222 5.502 3.608l.048.036c1.754 1.354 3.648 2.816 6.028 3.919 2.431 1.126 5.319 1.857 9.091 1.857a1.5 1.5 0 1 0 0-3c-3.353 0-5.809-.643-7.831-1.58-2.051-.95-3.707-2.221-5.502-3.607l-.048-.037c-1.754-1.354-3.648-2.816-6.028-3.918C258.66 113.732 255.772 113 252 113c-3.772 0-6.66.732-9.091 1.858-2.38 1.102-4.274 2.564-6.028 3.918l-.048.037c-1.795 1.386-3.451 2.657-5.502 3.607-2.022.937-4.478 1.58-7.831 1.58-3.353 0-5.809-.643-7.831-1.58-2.051-.95-3.707-2.221-5.502-3.607l-.048-.037c-1.754-1.354-3.648-2.816-6.028-3.918C201.66 113.732 198.772 113 195 113c-3.772 0-6.66.732-9.091 1.858-2.38 1.102-4.274 2.564-6.028 3.918l-.048.037c-1.795 1.386-3.451 2.657-5.502 3.607-2.022.937-4.478 1.58-7.831 1.58a1.5 1.5 0 0 0 0 3zM85.598 30.168a1.5 1.5 0 0 1 1.572-.125l9.682 4.974a1.5 1.5 0 0 1-.312 2.787l-4.496 1.158-2.457 3.939a1.5 1.5 0 0 1-2.752-.542l-1.829-10.73a1.5 1.5 0 0 1 .592-1.461zm2.87 3.915l.662 3.883.686-1.101a1.5 1.5 0 0 1 .899-.659l1.256-.323-3.503-1.8zm-1.298 83.96a1.501 1.501 0 0 0-2.164 1.586l1.83 10.73a1.501 1.501 0 0 0 2.75.542l2.458-3.939 4.496-1.158a1.5 1.5 0 0 0 .312-2.787l-9.682-4.974zm1.96 7.923l-.662-3.883 3.503 1.8-1.256.323a1.5 1.5 0 0 0-.899.659l-.686 1.101zM89.009 26.5c-1.9-.195-3.689.194-4.553.735-3.268 2.046-4.195 5.838-2.615 8.362a1.5 1.5 0 0 1-2.543 1.592c-2.64-4.217-.8-9.764 3.566-12.497 1.607-1.006 4.13-1.414 6.45-1.176 2.32.238 4.94 1.178 6.35 3.429a1.5 1.5 0 1 1-2.543 1.591c-.702-1.12-2.212-1.841-4.112-2.036zm-4.553 88.735c.864-.541 2.653-.93 4.553-.735 1.9.195 3.41.916 4.112 2.036a1.5 1.5 0 1 0 2.543-1.591c-1.41-2.251-4.03-3.191-6.35-3.429-2.32-.238-4.843.17-6.45 1.176-4.366 2.733-6.206 8.28-3.566 12.497a1.5 1.5 0 1 0 2.543-1.591c-1.58-2.525-.653-6.317 2.615-8.363z" clip-rule="evenodd"/></svg>