<svg data-name="Layer 1" xmlns="http://www.w3.org/2000/svg" viewBox="0 0 22 22"><path d="M3 9.78h0a2.87 2.87 0 012.88-2.87H9.4v5.75H5.88A2.88 2.88 0 013 9.78m11.11 5.87L9.4 12.51v-5.6l4.71-3.15A1.61 1.61 0 0116.6 5.1v9.22a1.6 1.6 0 01-2.49 1.33z" fill="none" stroke="currentColor" stroke-linecap="round" stroke-linejoin="round" stroke-width="6%" data-darkreader-inline-stroke="" style="--darkreader-inline-stroke:currentColor;"></path><path d="M17.66 11.21H16.6v-3h1.06A1.34 1.34 0 0119 9.55v.31a1.34 1.34 0 01-1.34 1.35m-8.26 1.7l1 3.64a1.54 1.54 0 01-1.48 2H9a1.54 1.54 0 01-1.48-1.12L6.2 12.91" fill="none" stroke="currentColor" stroke-linecap="round" stroke-linejoin="round" stroke-width="6%" data-darkreader-inline-stroke="" style="--darkreader-inline-stroke:currentColor;"></path></svg>