<svg data-name="Layer 1" xmlns="http://www.w3.org/2000/svg" viewBox="0 0 22 22"><path d="M2.44 17.19V4.91a1.7 1.7 0 0 1 1.74-1.65h4.35a1.7 1.7 0 0 1 1.75 1.65v.66a.85.85 0 0 0 .87.83h5.22a1.7 1.7 0 0 1 1.74 1.65v2.11" fill="none" stroke="currentColor" stroke-linecap="round" stroke-linejoin="round" stroke-width="1.5" data-darkreader-inline-stroke="" style="--darkreader-inline-stroke:currentColor;"></path><path d="M2.55 17l2.17-5.79a1.71 1.71 0 0 1 1.61-1.09h11.4a1.67 1.67 0 0 1 1.63 2.16l-1.9 5.78a1.72 1.72 0 0 1-1.63 1.16H4.15A1.66 1.66 0 0 1 2.55 17z" fill="none" stroke="currentColor" stroke-linecap="round" stroke-linejoin="round" stroke-width="1.5" data-darkreader-inline-stroke="" style="--darkreader-inline-stroke:currentColor;"></path></svg>