<svg data-name="Layer 1" xmlns="http://www.w3.org/2000/svg" viewBox="0 0 22 22"><path d="M16.45 13.8v3.6a1.6 1.6 0 0 1-1.6 1.6h-7.2a1.6 1.6 0 0 1-1.6-1.6V4.6A1.6 1.6 0 0 1 7.65 3h7.2a1.6 1.6 0 0 1 1.6 1.6v1.6" fill="none" stroke="currentColor" stroke-linecap="round" stroke-linejoin="round" stroke-width="1.5" data-darkreader-inline-stroke="" style="--darkreader-inline-stroke:currentColor;"></path><path d="M13.65 12.6h-3.2a1.6 1.6 0 0 1-1.6-1.6V7.8a1.6 1.6 0 0 1 1.6-1.6h6.4a1.6 1.6 0 0 1 1.6 1.6v2.87a2.74 2.74 0 0 1-.8 1.93h0l-4 3.2v-3.2m-2.4-3.2h4.8" fill="none" stroke="currentColor" stroke-linecap="round" stroke-linejoin="round" stroke-width="1.5" data-darkreader-inline-stroke="" style="--darkreader-inline-stroke:currentColor;"></path></svg>