<svg width="22" height="22" viewBox="0 0 22 22" fill="none" xmlns="http://www.w3.org/2000/svg">
<path fill-rule="evenodd" clip-rule="evenodd" d="M3.75 3C3.75 2.58579 3.41421 2.25 3 2.25C2.58579 2.25 2.25 2.58579 2.25 3V17.23L2.25001 17.2342C2.25374 17.9003 2.52 18.538 2.99099 19.009C3.46199 19.48 4.09972 19.7463 4.7658 19.75L4.77 19.75H19C19.4142 19.75 19.75 19.4142 19.75 19C19.75 18.5858 19.4142 18.25 19 18.25H4.77243C4.5019 18.248 4.24298 18.1397 4.05165 17.9483C3.86033 17.757 3.75199 17.4981 3.75 17.2276V3ZM17.2207 14.7C17.6349 14.7004 17.9703 15.0365 17.97 15.4507C17.9696 15.8649 17.6335 16.2004 17.2193 16.2C14.1897 16.1972 11.2852 14.9917 9.14394 12.8485C7.00272 10.7052 5.79996 7.79959 5.79996 4.77002C5.79996 4.35581 6.13575 4.02002 6.54996 4.02002C6.96417 4.02002 7.29996 4.35581 7.29996 4.77002C7.29996 7.40201 8.34488 9.92634 10.2051 11.7883C12.0653 13.6503 14.5887 14.6976 17.2207 14.7Z" fill="currentColor" data-darkreader-inline-fill="" style="--darkreader-inline-fill:currentColor;"></path>
</svg>