<svg data-name="Layer 1" xmlns="http://www.w3.org/2000/svg" viewBox="0 0 22 22"><path d="M4.13 7.56V5.85a1.72 1.72 0 0 1 1.72-1.72h1.71m0 13.74H5.85a1.72 1.72 0 0 1-1.72-1.72v-1.71m13.74 0v1.71a1.72 1.72 0 0 1-1.72 1.72h-1.71m0-13.74h1.71a1.72 1.72 0 0 1 1.72 1.72v1.71" fill="none" stroke="currentColor" stroke-linecap="round" stroke-linejoin="round" stroke-width="1.5" data-darkreader-inline-stroke="" style="--darkreader-inline-stroke:currentColor;"></path><path fill="currentColor" d="M11 3a1.13 1.13 0 1 0 .8.33A1.13 1.13 0 0 0 11 3zm0 13.74a1.14 1.14 0 0 0-.8.34 1.13 1.13 0 1 0 1.6 0 1.14 1.14 0 0 0-.8-.34zM4.13 9.87a1.13 1.13 0 1 0 0 2.26 1.11 1.11 0 0 0 .79-.33 1.12 1.12 0 0 0 0-1.6 1.11 1.11 0 0 0-.79-.33zM11 9.5a1.51 1.51 0 0 0-1.06.44 1.49 1.49 0 0 0 0 2.12 1.5 1.5 0 0 0 2.12 0 1.49 1.49 0 0 0 0-2.12A1.51 1.51 0 0 0 11 9.5zm6.87.37a1.11 1.11 0 0 0-.79.33 1.12 1.12 0 0 0 0 1.6 1.11 1.11 0 0 0 .79.33 1.13 1.13 0 1 0 0-2.26z" data-darkreader-inline-fill="" style="--darkreader-inline-fill:currentColor;"></path></svg>