<svg xmlns="http://www.w3.org/2000/svg" viewBox="0 0 22 22"><path fill="currentColor" d="M7.52 19.75a1 1 0 0 1-.52-.12 1 1 0 0 1-.5-1.1l2-5.78H6.18A1.75 1.75 0 0 1 4.72 12a1.78 1.78 0 0 1-.14-1.7l4.34-7.67a.73.73 0 0 1 .65-.38h7a.74.74 0 0 1 .66.4.76.76 0 0 1 0 .77L14 8.25h2.6a1 1 0 0 1 .93.62 1 1 0 0 1-.23 1.1l-9 9.47a1 1 0 0 1-.78.31zm2.48-16l-4.1 7.18c0 .05 0 .17.07.2a.23.23 0 0 0 .2.12h3.4a.77.77 0 0 1 .61.31.75.75 0 0 1 .1.68l-1.55 4.51 6.67-7h-2.83a.75.75 0 0 1-.66-.4.74.74 0 0 1 0-.77l3.22-4.83zm6.2 5.16z" data-darkreader-inline-fill="" style="--darkreader-inline-fill:currentColor;"></path></svg>