<svg data-name="Layer 1" xmlns="http://www.w3.org/2000/svg" viewBox="0 0 22 22"><path d="M19 8.54v8.86a1.6 1.6 0 0 1-1.6 1.6H4.6A1.6 1.6 0 0 1 3 17.4V4.6A1.6 1.6 0 0 1 4.6 3h8.21a1.6 1.6 0 0 1 1 .39l4.59 3.93a1.6 1.6 0 0 1 .6 1.22z" fill="none" stroke="currentColor" stroke-linecap="round" stroke-linejoin="round" stroke-width="1.5" data-darkreader-inline-stroke="" style="--darkreader-inline-stroke:currentColor;"></path><circle cx="11" cy="12.6" r="3.2" fill="none" stroke="currentColor" stroke-linecap="round" stroke-linejoin="round" stroke-width="1.5" data-darkreader-inline-stroke="" style="--darkreader-inline-stroke:currentColor;"></circle><path fill="none" stroke="currentColor" stroke-linecap="round" stroke-linejoin="round" stroke-width="1.5" d="M10.2 6.2h-4" data-darkreader-inline-stroke="" style="--darkreader-inline-stroke:currentColor;"></path><path fill="currentColor" d="M11 11.6a1 1 0 1 0 1 1 1 1 0 0 0-1-1z" data-darkreader-inline-fill="" style="--darkreader-inline-fill:currentColor;"></path></svg>