<svg data-name="Layer 1" xmlns="http://www.w3.org/2000/svg" viewBox="0 0 22 22"><path d="M15.8 9.72v-4a1.6 1.6 0 0 0-1.6-1.6H4.6A1.6 1.6 0 0 0 3 5.72v5.6a1.6 1.6 0 0 0 1.6 1.6h0v3.2l3.2-3.2h1.6" stroke-width="1.5" fill="none" stroke="currentColor" stroke-linecap="round" stroke-linejoin="round" data-darkreader-inline-stroke="" style="--darkreader-inline-stroke:currentColor;"></path><path d="M17.4 9.72H11a1.6 1.6 0 0 0-1.6 1.6v3.2a1.6 1.6 0 0 0 1.6 1.6h5.44L19 17.88v-6.56a1.6 1.6 0 0 0-1.6-1.6z" stroke-width="1.5" fill="none" stroke="currentColor" stroke-linecap="round" stroke-linejoin="round" data-darkreader-inline-stroke="" style="--darkreader-inline-stroke:currentColor;"></path><path fill="none" stroke="currentColor" stroke-linecap="round" stroke-linejoin="round" d="M11.8 12.98h4.8" data-darkreader-inline-stroke="" style="--darkreader-inline-stroke:currentColor;"></path></svg>