<svg data-name="Layer 1" xmlns="http://www.w3.org/2000/svg" viewBox="0 0 22 22"><path d="M11.9 4l1.24 3.81a1 1 0 0 0 .9.66h4a1 1 0 0 1 .56 1.71l-3.25 2.36A.94.94 0 0 0 15 13.6l1.24 3.81a1 1 0 0 1-1.46 1.06l-3.24-2.36a1 1 0 0 0-1.12 0L7.2 18.47a1 1 0 0 1-1.46-1.06L7 13.6a.94.94 0 0 0-.34-1.06l-3.27-2.36A1 1 0 0 1 4 8.47h4a1 1 0 0 0 .9-.66L10.1 4a1 1 0 0 1 1.8 0z" fill="none" stroke="currentColor" stroke-linecap="round" stroke-linejoin="round" stroke-width="1.5" data-darkreader-inline-stroke="" style="--darkreader-inline-stroke:currentColor;"></path></svg>