<svg width="24" height="24" fill="none" xmlns="http://www.w3.org/2000/svg"><path d="M8.373 13.222c-1.947-.03-3.516-1.635-3.516-3.61C4.857 7.616 6.457 6 8.43 6S12 7.617 12 9.611c0 1.976-1.569 3.581-3.515 3.611" stroke="currentColor" stroke-width="1.5" data-darkreader-inline-stroke="" style="--darkreader-inline-stroke:currentColor;"></path><path d="M14.857 19c0-3.191-2.878-5.778-6.428-5.778S2 15.81 2 19M16.285 7.444c1.578 0 2.857 1.478 2.857 3.302 0 1.595-.607 2.354-1.822 3.11-.087.054-.05.197.053.204C20.04 14.244 22 16.385 22 19" stroke="currentColor" stroke-width="1.5" stroke-linecap="round" data-darkreader-inline-stroke="" style="--darkreader-inline-stroke:currentColor;"></path></svg>