<svg fill="none" xmlns="http://www.w3.org/2000/svg" viewBox="0 0 22 22"><path d="M4.25 7.571a.75.75 0 001.5 0h-1.5zm12 0a.75.75 0 001.5 0h-1.5zM9 16.25a.75.75 0 000 1.5v-1.5zm4 1.5a.75.75 0 000-1.5v1.5zM5.75 7.571V5.5h-1.5v2.071h1.5zM16.25 5.5v2.071h1.5V5.5h-1.5zM5.5 5.75H11v-1.5H5.5v1.5zm5.5 0h5.5v-1.5H11v1.5zM10.25 5v12h1.5V5h-1.5zM11 16.25H9v1.5h2v-1.5zm0 1.5h2v-1.5h-2v1.5zM17.75 5.5c0-.69-.56-1.25-1.25-1.25v1.5a.25.25 0 01-.25-.25h1.5zm-12 0a.25.25 0 01-.25.25v-1.5c-.69 0-1.25.56-1.25 1.25h1.5z" fill="currentColor" data-darkreader-inline-fill="" style="--darkreader-inline-fill:currentColor;"></path></svg>