<svg width="22" height="22" fill="none" xmlns="http://www.w3.org/2000/svg"><path d="M6.017 3.433a.75.75 0 10-.75-1.29 8.69 8.69 0 00-3.2 3.2.75.75 0 001.29.75 7.37 7.37 0 012.66-2.66z" fill="currentColor" data-darkreader-inline-fill="" style="--darkreader-inline-fill:currentColor;"></path><path fill-rule="evenodd" clip-rule="evenodd" d="M10.405 4.978a5.815 5.815 0 106.077 5.542.75.75 0 111.498-.07 7.315 7.315 0 11-4.48-6.41.75.75 0 11-.58 1.382 5.79 5.79 0 00-2.514-.444z" fill="currentColor" data-darkreader-inline-fill="" style="--darkreader-inline-fill:currentColor;"></path><path d="M3.147 17.223l1.9-1.91 3.13 1.44h3l2.5-.37 2.63-1.07 1.9 1.91a.75.75 0 01-1.06 1.06l-1.91-1.9a7.23 7.23 0 01-9.12 0l-1.91 1.9a.75.75 0 01-1.06-1.06zM16.035 5.955l-5.126 5.127L9.318 9.49a.75.75 0 00-1.06 1.06l2.12 2.122a.76.76 0 001.061 0l5.657-5.657a.75.75 0 10-1.06-1.06z" fill="currentColor" data-darkreader-inline-fill="" style="--darkreader-inline-fill:currentColor;"></path></svg>