<svg width="22" height="22" fill="none" xmlns="http://www.w3.org/2000/svg"><path d="M15 16h3" stroke="#000" stroke-width="1.5" stroke-linecap="round" stroke-linejoin="round" data-darkreader-inline-stroke="" style="--darkreader-inline-stroke:#e8e6e3;"></path><path d="M3.25 8.143a.75.75 0 0 0 1.5 0h-1.5Zm10 0a.75.75 0 0 0 1.5 0h-1.5ZM7.333 15.25a.75.75 0 0 0 0 1.5v-1.5Zm3.334 1.5a.75.75 0 0 0 0-1.5v1.5ZM4.75 8.143V6.5h-1.5v1.643h1.5Zm8.5-1.643v1.643h1.5V6.5h-1.5Zm-8.75.25H9v-1.5H4.5v1.5Zm4.5 0h4.5v-1.5H9v1.5ZM8.25 6v10h1.5V6h-1.5ZM9 15.25H7.333v1.5H9v-1.5Zm0 1.5h1.667v-1.5H9v1.5ZM14.75 6.5c0-.69-.56-1.25-1.25-1.25v1.5a.25.25 0 0 1-.25-.25h1.5Zm-10 0a.25.25 0 0 1-.25.25v-1.5c-.69 0-1.25.56-1.25 1.25h1.5Z" fill="currentColor" data-darkreader-inline-fill="" style="--darkreader-inline-fill:currentColor;"></path><path d="M16.5 16v-5L15 12.25" stroke="currentColor" stroke-width="1.5" stroke-linecap="round" stroke-linejoin="round" data-darkreader-inline-stroke="" style="--darkreader-inline-stroke:currentColor;"></path></svg>