<svg fill="none" xmlns="http://www.w3.org/2000/svg" viewBox="0 0 22 22"><path d="M9.244 5.093a.75.75 0 00-1.488-.186l1.488.186zm6 0a.75.75 0 00-1.488-.186l1.488.186zm-2.988 11.814a.75.75 0 001.488.186l-1.488-.186zM5 7.25a.75.75 0 000 1.5v-1.5zm12 1.5a.75.75 0 000-1.5v1.5zm0 6a.75.75 0 000-1.5v1.5zM6.818 12.407l-.093.744 1.489.186.093-.744-1.489-.186zM10 13.25h-.75v1.5H10v-1.5zm3.756-8.343l-1.5 12 1.488.186 1.5-12-1.488-.186zM5 8.75h12v-1.5H5v1.5zm2.756-3.843l-.938 7.5 1.489.186.937-7.5-1.488-.186zM10 14.75h7v-1.5h-7v1.5z" fill="currentColor" data-darkreader-inline-fill="" style="--darkreader-inline-fill:currentColor;"></path><path d="M2.625 19L4.5 16.5m0 0L6.375 19M4.5 16.5V14m0 2.5l2.5-.625m-2.5.625L2 15.875" stroke="currentColor" stroke-width="1.5" stroke-linecap="square" data-darkreader-inline-stroke="" style="--darkreader-inline-stroke:currentColor;"></path></svg>