<svg fill="none" xmlns="http://www.w3.org/2000/svg" viewBox="0 0 22 22"><path d="M18 13.894V8.78c0-2.119-3.77-2.119-4.308-.53" stroke="currentColor" stroke-width="1.5" stroke-linecap="round" data-darkreader-inline-stroke="" style="--darkreader-inline-stroke:currentColor;"></path><path d="M18 10.367c-2.543-.53-4.577.045-4.577 1.78 0 2.257 3.77 1.853 4.577.424v-2.204z" stroke="currentColor" stroke-width="1.5" data-darkreader-inline-stroke="" style="--darkreader-inline-stroke:currentColor;"></path><path d="M10.294 14.253a.75.75 0 101.412-.506l-1.412.506zM5.077 11l-.706-.253.706.253zm-.84.122l-.254.706 1.412.506.253-.706-1.412-.506zM7.86 5.253l-.706.254.706-.254zm-.706.254l2.063 5.746 1.412-.506L8.566 5l-1.412.507zm2.063 5.746l1.077 3 1.412-.506-1.077-3-1.412.506zm-3.434 0l2.063-5.746L6.434 5l-2.063 5.747 1.412.506zm4.14-1.003H5.077v1.5h4.846v-1.5zm-4.275 1.378l.135-.375-1.412-.506-.135.375 1.412.506zM7.5 5.75a.367.367 0 01-.346-.243L8.566 5A1.133 1.133 0 007.5 4.25v1.5zm0-1.5c-.478 0-.905.3-1.066.75l1.412.507a.367.367 0 01-.346.243v-1.5z" fill="currentColor" data-darkreader-inline-fill="" style="--darkreader-inline-fill:currentColor;"></path><path d="M2.625 19L4.5 16.5m0 0L6.375 19M4.5 16.5V14m0 2.5l2.5-.625m-2.5.625L2 15.875" stroke="currentColor" stroke-width="1.5" stroke-linecap="square" data-darkreader-inline-stroke="" style="--darkreader-inline-stroke:currentColor;"></path></svg>