<svg data-name="Layer 1" xmlns="http://www.w3.org/2000/svg" viewBox="0 0 22 22"><path d="M14.32 12.07a3.32 3.32 0 1 1-1 5.37m-7.81-5.56a3.31 3.31 0 1 0 4.12 3.22h6M9.38 9.8a3.32 3.32 0 1 1 4.94-2.9" fill="none" stroke="currentColor" stroke-linecap="round" stroke-linejoin="round" stroke-width="1.5" data-darkreader-inline-stroke="" style="--darkreader-inline-stroke:currentColor;"></path><path fill="currentColor" d="M11 5.34a1.56 1.56 0 0 0-.1 3.12h.1a1.56 1.56 0 0 0 .1-3.12zM6.32 15a.06.06 0 0 1 .06.06.06.06 0 0 1-.06.06.06.06 0 0 1-.06-.06.05.05 0 0 1 .06-.06m0-1.5a1.56 1.56 0 1 0 1.56 1.6 1.56 1.56 0 0 0-1.56-1.56zm9.36 1.5a.05.05 0 0 1 .06.06.06.06 0 0 1-.06.06.06.06 0 0 1-.06-.06.06.06 0 0 1 .06-.06m0-1.5a1.56 1.56 0 1 0 1.56 1.56 1.56 1.56 0 0 0-1.56-1.56z" data-darkreader-inline-fill="" style="--darkreader-inline-fill:currentColor;"></path><path fill="none" stroke="currentColor" stroke-linecap="round" stroke-linejoin="round" stroke-width="1.5" d="M9.38 9.8l-3.06 5.1M11 7.1l3.32 4.95" data-darkreader-inline-stroke="" style="--darkreader-inline-stroke:currentColor;"></path></svg>