<svg xmlns="http://www.w3.org/2000/svg" viewBox="0 0 22 22"><g fill="none" stroke="currentColor" stroke-linecap="round" stroke-width="1.5" data-darkreader-inline-stroke="" style="--darkreader-inline-stroke:currentColor;"><path stroke-linejoin="round" d="M9.454 16.397a1.67 1.67 0 0 1-2.352.281 1.67 1.67 0 0 1-.288-2.344"></path><path d="M15.428 15.382l-9.01-7.04m4.383 8.053l-7.414-5.793a.821.821 0 0 1 .24-1.423l1.832-.613a3.225 3.225 0 0 0 1.548-1.083l1.136-1.455a5.725 5.725 0 0 1 8.038-.971l.018.013a5.725 5.725 0 0 1 1.002 8.034l-1.137 1.455a3.218 3.218 0 0 0-.676 1.764l-.15 1.928a.82.82 0 0 1-1.322.578z"></path></g></svg>