<svg xmlns="http://www.w3.org/2000/svg" width="32" height="32" fill="none" viewBox="0 0 32 32"><rect width="32" height="32" fill="#80E1D9" fill-opacity=".08" rx="6" transform="matrix(1 0 0 -1 0 32)" data-darkreader-inline-fill="" style="--darkreader-inline-fill:#7de0d8;"></rect><path fill="#80E1D9" fill-rule="evenodd" d="M25 6.5H7a.5.5 0 0 0-.5.5v2a.5.5 0 0 0 .5.5h18a.5.5 0 0 0 .5-.5V7a.5.5 0 0 0-.5-.5zm2 .5a2 2 0 0 0-2-2H7a2 2 0 0 0-2 2v2a2 2 0 0 0 2 2h18a2 2 0 0 0 2-2V7zM9 22.5H7a.5.5 0 0 0-.5.5v2a.5.5 0 0 0 .5.5h2a.5.5 0 0 0 .5-.5v-2a.5.5 0 0 0-.5-.5zm2 .5a2 2 0 0 0-2-2H7a2 2 0 0 0-2 2v2a2 2 0 0 0 2 2h2a2 2 0 0 0 2-2v-2zm12-8.5h2a.5.5 0 0 1 .5.5v2a.5.5 0 0 1-.5.5h-2a.5.5 0 0 1-.5-.5v-2a.5.5 0 0 1 .5-.5zm2-1.5a2 2 0 0 1 2 2v2a2 2 0 0 1-2 2h-2a2 2 0 0 1-2-2v-2a2 2 0 0 1 2-2h2zm-3.37 12.5H25a.5.5 0 0 0 .5-.5v-2a.5.5 0 0 0-.5-.5h-2.185a5.5 5.5 0 0 1-4.14-1.878l-3.413-3.902a6.5 6.5 0 0 0-4.892-2.22H7a.5.5 0 0 0-.5.5v2a.5.5 0 0 0 .5.5h2.185a5.5 5.5 0 0 1 4.14 1.878l3.413 3.902a6.5 6.5 0 0 0 4.892 2.22zM27 23a2 2 0 0 0-2-2h-2.185a4 4 0 0 1-3.01-1.366l-3.415-3.902A8 8 0 0 0 10.37 13H7a2 2 0 0 0-2 2v2a2 2 0 0 0 2 2h2.185a4 4 0 0 1 3.01 1.366l3.415 3.902A8 8 0 0 0 21.63 27H25a2 2 0 0 0 2-2v-2z" clip-rule="evenodd" data-darkreader-inline-fill="" style="--darkreader-inline-fill:#7de0d8;"></path></svg>