<svg xmlns="http://www.w3.org/2000/svg" width="32" height="32" fill="none" viewBox="0 0 32 32"><rect width="32" height="32" fill="#72BEF4" fill-opacity=".08" rx="6" data-darkreader-inline-fill="" style="--darkreader-inline-fill:#6dbcf4;"></rect><path fill="#72BEF4" fill-rule="evenodd" d="M16 6.75a9.25 9.25 0 0 0 0 18.5.75.75 0 0 1 0 1.5c-5.937 0-10.75-4.813-10.75-10.75S10.063 5.25 16 5.25 26.75 10.063 26.75 16a.75.75 0 0 1-1.5 0A9.25 9.25 0 0 0 16 6.75zm0 5a4.25 4.25 0 0 0 0 8.5.75.75 0 0 1 0 1.5A5.75 5.75 0 1 1 21.75 16a.75.75 0 0 1-1.5 0A4.25 4.25 0 0 0 16 11.75zm3 6.5a.75.75 0 0 0-.75.75v5a.75.75 0 0 0 1.5 0v-3.19l5.72 5.72a.75.75 0 1 0 1.06-1.06l-5.72-5.72H24a.75.75 0 0 0 0-1.5h-5z" clip-rule="evenodd" data-darkreader-inline-fill="" style="--darkreader-inline-fill:#6dbcf4;"></path></svg>