<svg data-name="Layer 1" xmlns="http://www.w3.org/2000/svg" viewBox="0 0 22 22"><path d="M10 6.06v.06a2 2 0 01-2 2h0a2 2 0 01-2-2v-.06a2 2 0 012-2h0a2 2 0 012 2" stroke-miterlimit="10" fill="none" stroke="currentColor" stroke-linecap="round" stroke-width="6%" data-darkreader-inline-stroke="" style="--darkreader-inline-stroke:currentColor;"></path><path d="M12.9 15.27a2.9 2.9 0 00-.1-.83A5.05 5.05 0 008 10.73h0a5.06 5.06 0 00-4.9 3.71 2.9 2.9 0 00-.1.83v.93a1.69 1.69 0 001.68 1.71h6.54a1.69 1.69 0 001.68-1.71z" stroke-linejoin="round" fill="none" stroke="currentColor" stroke-linecap="round" stroke-width="6%" data-darkreader-inline-stroke="" style="--darkreader-inline-stroke:currentColor;"></path><path d="M16.62 8.91a1.33 1.33 0 01-1.33 1.31h0A1.33 1.33 0 0114 8.91v0a1.33 1.33 0 011.34-1.32h0a1.33 1.33 0 011.33 1.32v0" stroke-miterlimit="10" fill="none" stroke="currentColor" stroke-linecap="round" stroke-width="6%" data-darkreader-inline-stroke="" style="--darkreader-inline-stroke:currentColor;"></path><path d="M11.11 17.91h6.63A1.27 1.27 0 0019 16.63m0 0v-.7a2.7 2.7 0 00-.07-.63 3.82 3.82 0 00-3.64-2.78h0a3.75 3.75 0 00-2.75 1.2" stroke-linejoin="round" fill="none" stroke="currentColor" stroke-linecap="round" stroke-width="6%" data-darkreader-inline-stroke="" style="--darkreader-inline-stroke:currentColor;"></path></svg>