<svg xmlns="http://www.w3.org/2000/svg" width="32" height="32" fill="none" viewBox="0 0 32 32"><rect width="32" height="32" fill="#FF7557" fill-opacity=".08" rx="6" data-darkreader-inline-fill="" style="--darkreader-inline-fill:#ff7556;"></rect><path fill="#FF7557" fill-rule="evenodd" d="M7 25.5h2a.5.5 0 0 0 .5-.5V7a.5.5 0 0 0-.5-.5H7a.5.5 0 0 0-.5.5v18a.5.5 0 0 0 .5.5zM9 27a2 2 0 0 0 2-2V7a2 2 0 0 0-2-2H7a2 2 0 0 0-2 2v18a2 2 0 0 0 2 2h2zm6-1.5h2a.5.5 0 0 0 .5-.5V15a.5.5 0 0 0-.5-.5h-2a.5.5 0 0 0-.5.5v10a.5.5 0 0 0 .5.5zm2 1.5a2 2 0 0 0 2-2V15a2 2 0 0 0-2-2h-2a2 2 0 0 0-2 2v10a2 2 0 0 0 2 2h2zm8-1.5h-2a.5.5 0 0 1-.5-.5v-4a.5.5 0 0 1 .5-.5h2a.5.5 0 0 1 .5.5v4a.5.5 0 0 1-.5.5zm2-.5a2 2 0 0 1-2 2h-2a2 2 0 0 1-2-2v-4a2 2 0 0 1 2-2h2a2 2 0 0 1 2 2v4z" clip-rule="evenodd" data-darkreader-inline-fill="" style="--darkreader-inline-fill:#ff7556;"></path></svg>