<svg xmlns="http://www.w3.org/2000/svg" width="32" height="32" fill="none" viewBox="0 0 32 32"><rect width="32" height="32" fill="#F8BC3B" opacity=".08" rx="6" data-darkreader-inline-fill="" style="--darkreader-inline-fill:#f8bf45;"></rect><path fill="#F8BC3B" fill-rule="evenodd" d="M9 9.5H7a.5.5 0 0 1-.5-.5V7a.5.5 0 0 1 .5-.5h2a.5.5 0 0 1 .5.5v2a.5.5 0 0 1-.5.5zm2-.5a2 2 0 0 1-2 2H7a2 2 0 0 1-2-2V7a2 2 0 0 1 2-2h2a2 2 0 0 1 2 2v2zm-2 8.5H7a.5.5 0 0 1-.5-.5v-2a.5.5 0 0 1 .5-.5h2a.5.5 0 0 1 .5.5v2a.5.5 0 0 1-.5.5zm2-.5a2 2 0 0 1-2 2H7a2 2 0 0 1-2-2v-2a2 2 0 0 1 2-2h2a2 2 0 0 1 2 2v2zm6 .5h-2a.5.5 0 0 1-.5-.5v-2a.5.5 0 0 1 .5-.5h2a.5.5 0 0 1 .5.5v2a.5.5 0 0 1-.5.5zm2-.5a2 2 0 0 1-2 2h-2a2 2 0 0 1-2-2v-2a2 2 0 0 1 2-2h2a2 2 0 0 1 2 2v2zM7 25.5h2a.5.5 0 0 0 .5-.5v-2a.5.5 0 0 0-.5-.5H7a.5.5 0 0 0-.5.5v2a.5.5 0 0 0 .5.5zM9 27a2 2 0 0 0 2-2v-2a2 2 0 0 0-2-2H7a2 2 0 0 0-2 2v2a2 2 0 0 0 2 2h2zm6-17.5h2a.5.5 0 0 0 .5-.5V7a.5.5 0 0 0-.5-.5h-2a.5.5 0 0 0-.5.5v2a.5.5 0 0 0 .5.5zm2 1.5a2 2 0 0 0 2-2V7a2 2 0 0 0-2-2h-2a2 2 0 0 0-2 2v2a2 2 0 0 0 2 2h2zm8-1.5h-2a.5.5 0 0 1-.5-.5V7a.5.5 0 0 1 .5-.5h2a.5.5 0 0 1 .5.5v2a.5.5 0 0 1-.5.5zm2-.5a2 2 0 0 1-2 2h-2a2 2 0 0 1-2-2V7a2 2 0 0 1 2-2h2a2 2 0 0 1 2 2v2z" clip-rule="evenodd" data-darkreader-inline-fill="" style="--darkreader-inline-fill:#f8bf45;"></path></svg>