<svg data-name="Layer 1" xmlns="http://www.w3.org/2000/svg" viewBox="0 0 22 22"><path d="M18.94 12.6V9.4h-2.18a.81.81 0 01-.57-1.4l1.55-1.56-2.25-2.23L14 5.76a.8.8 0 01-1.37-.57V3H9.41v2.2A.8.8 0 018 5.76L6.51 4.21 4.26 6.47 5.81 8a.8.8 0 01-.57 1.4H3.06v3.2h2.18a.8.8 0 01.57 1.4l-1.55 1.52 2.25 2.27L8 16.24a.8.8 0 011.37.56V19h3.18v-2.2a.8.8 0 011.45-.56l1.53 1.55 2.25-2.26L16.19 14a.8.8 0 01.57-1.36z" stroke-linecap="round" stroke-linejoin="round" fill="none" stroke="currentColor" stroke-width="6%" data-darkreader-inline-stroke="" style="--darkreader-inline-stroke:currentColor;"></path><path d="M11 13a2 2 0 01-2-2h0a2 2 0 012-2h0a2 2 0 012 2h0a2 2 0 01-2 2h0" stroke-miterlimit="10" fill="none" stroke="currentColor" stroke-width="6%" data-darkreader-inline-stroke="" style="--darkreader-inline-stroke:currentColor;"></path></svg>