<svg data-name="Layer 1" xmlns="http://www.w3.org/2000/svg" viewBox="0 0 22 22"><path d="M13.8 9.4V5.67A2.66 2.66 0 0011.13 3h0a2.66 2.66 0 00-2.66 2.67h0V7.4m2.93 2H6.6A1.6 1.6 0 005 11v4a1.6 1.6 0 001.6 1.6H13a1.6 1.6 0 001.6-1.6v-1.6a1.6 1.6 0 00-1.6-1.6H8.6A1.2 1.2 0 007.4 13h0a1.2 1.2 0 001.2 1.2h2.8" fill="none" stroke="currentColor" stroke-linecap="round" stroke-linejoin="round" stroke-width="6%" data-darkreader-inline-stroke="" style="--darkreader-inline-stroke:currentColor;"></path><path d="M5 19h10.4a1.6 1.6 0 001.6-1.6V11a1.6 1.6 0 00-1.6-1.6h-1.6V6.2" fill="none" stroke="currentColor" stroke-linecap="round" stroke-linejoin="round" stroke-width="6%" data-darkreader-inline-stroke="" style="--darkreader-inline-stroke:currentColor;"></path></svg>