<svg xmlns="http://www.w3.org/2000/svg" width="32" height="32" fill="none" viewBox="0 0 32 32"><rect width="32" height="32" fill="#7856FF" fill-opacity=".08" rx="6" data-darkreader-inline-fill="" style="--darkreader-inline-fill:#7856ff;"></rect><path fill="#7856FF" fill-rule="evenodd" d="M25 6.5H7a.5.5 0 0 0-.5.5v18a.5.5 0 0 0 .5.5h18a.5.5 0 0 0 .5-.5V7a.5.5 0 0 0-.5-.5zM7 5a2 2 0 0 0-2 2v18a2 2 0 0 0 2 2h18a2 2 0 0 0 2-2V7a2 2 0 0 0-2-2H7zm9 14.25a.75.75 0 0 1 .75.75v3a.75.75 0 0 1-1.5 0v-3a.75.75 0 0 1 .75-.75zM11.75 22a.75.75 0 0 0-1.5 0v1a.75.75 0 0 0 1.5 0v-1zm9.25-.75a.75.75 0 0 1 .75.75v1a.75.75 0 0 1-1.5 0v-1a.75.75 0 0 1 .75-.75zM8.97 15.97a.75.75 0 1 0 1.06 1.06L13 14.06l2.47 2.47a.75.75 0 0 0 1.06 0l6.5-6.5a.75.75 0 1 0-1.06-1.06L16 14.94l-2.47-2.47a.75.75 0 0 0-1.06 0l-3.5 3.5z" clip-rule="evenodd" data-darkreader-inline-fill="" style="--darkreader-inline-fill:#7856ff;"></path></svg>