<svg width="22" height="22" fill="none" xmlns="http://www.w3.org/2000/svg"><rect width="22" height="22" rx="4.125" fill="#FF7557" fill-opacity=".08" data-darkreader-inline-fill="" style="--darkreader-inline-fill:#ff7556;"></rect><path fill-rule="evenodd" clip-rule="evenodd" d="M4.813 17.531h1.375c.19 0 .343-.154.343-.343V4.813a.344.344 0 0 0-.343-.344H4.813a.344.344 0 0 0-.344.343v12.375c0 .19.154.344.343.344Zm1.375 1.032c.759 0 1.375-.616 1.375-1.375V4.813c0-.76-.616-1.375-1.375-1.375H4.813c-.76 0-1.375.615-1.375 1.374v12.375c0 .76.615 1.375 1.374 1.375h1.375Zm4.125-1.032h1.374c.19 0 .344-.154.344-.343v-6.875a.344.344 0 0 0-.344-.344h-1.374a.344.344 0 0 0-.344.344v6.874c0 .19.154.344.344.344Zm1.374 1.032c.76 0 1.376-.616 1.376-1.375v-6.875c0-.76-.616-1.376-1.376-1.376h-1.374c-.76 0-1.376.616-1.376 1.376v6.874c0 .76.616 1.375 1.376 1.375h1.374Zm5.5-1.032h-1.375a.344.344 0 0 1-.343-.343v-2.75c0-.19.154-.344.344-.344h1.374c.19 0 .344.154.344.344v2.75c0 .19-.154.343-.343.343Zm1.375-.343c0 .759-.615 1.375-1.375 1.375h-1.375c-.759 0-1.374-.616-1.374-1.375v-2.75c0-.76.615-1.376 1.374-1.376h1.376c.759 0 1.375.616 1.375 1.376v2.75Z" fill="#FF7557" data-darkreader-inline-fill="" style="--darkreader-inline-fill:#ff7556;"></path><path d="M18.183 18.182v-4.364m0 0h-4.364m4.364 0-4.364 4.364" stroke="#fff" stroke-width="4.5" stroke-linecap="round" stroke-linejoin="round" data-darkreader-inline-stroke="" style="--darkreader-inline-stroke:#e8e6e3;"></path><path d="M18.183 18.182v-4.364m0 0h-4.364m4.364 0-4.364 4.364" stroke="#2A2A2F" stroke-width="1.4" stroke-linecap="round" stroke-linejoin="round" data-darkreader-inline-stroke="" style="--darkreader-inline-stroke:#ccc7c1;"></path></svg>