<svg xmlns="http://www.w3.org/2000/svg" width="32" height="32" fill="none" viewBox="0 0 32 32"><rect width="32" height="32" fill="#626266" fill-opacity=".05" rx="6" data-darkreader-inline-fill="" style="--darkreader-inline-fill:#a9a196;"></rect><path stroke="currentColor" stroke-linecap="round" stroke-linejoin="round" stroke-width="1.5" d="M5.75 7c0-.69.56-1.25 1.25-1.25h6c.69 0 1.25.56 1.25 1.25v6c0 .69-.56 1.25-1.25 1.25H7c-.69 0-1.25-.56-1.25-1.25V7z" data-darkreader-inline-stroke="" style="--darkreader-inline-stroke:currentColor;"></path><path stroke="currentColor" stroke-linecap="round" stroke-linejoin="round" stroke-width="1.5" d="M5.75 19c0-.69.56-1.25 1.25-1.25h6c.69 0 1.25.56 1.25 1.25v6c0 .69-.56 1.25-1.25 1.25H7c-.69 0-1.25-.56-1.25-1.25v-6z" data-darkreader-inline-stroke="" style="--darkreader-inline-stroke:currentColor;"></path><path stroke="currentColor" stroke-linecap="round" stroke-linejoin="round" stroke-width="1.5" d="M17.75 7c0-.69.56-1.25 1.25-1.25h6c.69 0 1.25.56 1.25 1.25v6c0 .69-.56 1.25-1.25 1.25h-6c-.69 0-1.25-.56-1.25-1.25V7z" data-darkreader-inline-stroke="" style="--darkreader-inline-stroke:currentColor;"></path><path stroke="currentColor" stroke-linecap="round" stroke-linejoin="round" stroke-width="1.5" d="M17.75 19c0-.69.56-1.25 1.25-1.25h6c.69 0 1.25.56 1.25 1.25v6c0 .69-.56 1.25-1.25 1.25h-6c-.69 0-1.25-.56-1.25-1.25v-6z" data-darkreader-inline-stroke="" style="--darkreader-inline-stroke:currentColor;"></path></svg>