<svg width="22" height="22" fill="none" xmlns="http://www.w3.org/2000/svg"><rect width="22" height="22" rx="4.125" fill="#7856FF" fill-opacity=".08" data-darkreader-inline-fill="" style="--darkreader-inline-fill:#7856ff;"></rect><path fill-rule="evenodd" clip-rule="evenodd" d="M17.188 4.469H4.813a.344.344 0 0 0-.344.343v12.375c0 .19.154.344.343.344h12.375c.19 0 .344-.154.344-.343V4.813a.344.344 0 0 0-.343-.344ZM4.813 3.437c-.76 0-1.375.616-1.375 1.376v12.375c0 .759.615 1.375 1.374 1.375h12.375c.76 0 1.375-.616 1.375-1.375V4.813c0-.76-.615-1.375-1.375-1.375H4.813Zm5.671 10.313a.516.516 0 1 1 1.032 0v2.063a.516.516 0 1 1-1.032 0V13.75Zm-2.406 1.375a.516.516 0 1 0-1.031 0v.688a.516.516 0 1 0 1.031 0v-.688Zm6.36-.516c.284 0 .515.231.515.516v.688a.516.516 0 1 1-1.031 0v-.688c0-.285.23-.516.515-.516Zm-8.271-3.63a.516.516 0 0 0 .729.73l2.042-2.042 1.697 1.698a.516.516 0 0 0 .73 0l4.468-4.47a.516.516 0 0 0-.729-.728L11 10.27 9.302 8.573a.516.516 0 0 0-.73 0l-2.405 2.406Z" fill="#7856FF" data-darkreader-inline-fill="" style="--darkreader-inline-fill:#7856ff;"></path><path d="M18.183 18.182v-4.364m0 0h-4.364m4.364 0-4.364 4.364" stroke="#fff" stroke-width="4.5" stroke-linecap="round" stroke-linejoin="round" data-darkreader-inline-stroke="" style="--darkreader-inline-stroke:#e8e6e3;"></path><path d="M18.183 18.182v-4.364m0 0h-4.364m4.364 0-4.364 4.364" stroke="#2A2A2F" stroke-width="1.4" stroke-linecap="round" stroke-linejoin="round" data-darkreader-inline-stroke="" style="--darkreader-inline-stroke:#ccc7c1;"></path></svg>