<svg width="22" height="22" fill="none" xmlns="http://www.w3.org/2000/svg"><rect opacity=".08" width="22" height="22" rx="4.125" fill="#F8BC3B" data-darkreader-inline-fill="" style="--darkreader-inline-fill:#f8bf45;"></rect><path fill-rule="evenodd" clip-rule="evenodd" d="M6.188 6.531H4.813a.344.344 0 0 1-.344-.343V4.813c0-.19.154-.344.343-.344h1.375c.19 0 .344.154.344.343v1.375c0 .19-.154.344-.343.344Zm1.375-.343c0 .759-.616 1.375-1.375 1.375H4.813c-.76 0-1.375-.616-1.375-1.375V4.813c0-.76.615-1.375 1.374-1.375h1.375c.76 0 1.375.615 1.375 1.374v1.375ZM6.188 12.03H4.813a.344.344 0 0 1-.344-.344v-1.374c0-.19.154-.344.343-.344h1.375c.19 0 .344.154.344.344v1.374c0 .19-.154.344-.343.344Zm1.375-.344c0 .76-.616 1.376-1.375 1.376H4.813c-.76 0-1.375-.616-1.375-1.376v-1.374c0-.76.615-1.376 1.374-1.376h1.375c.76 0 1.375.616 1.375 1.376v1.374Zm4.125.344h-1.376a.344.344 0 0 1-.343-.344v-1.374c0-.19.154-.344.344-.344h1.374c.19 0 .344.154.344.344v1.374c0 .19-.154.344-.344.344Zm1.374-.344c0 .76-.615 1.376-1.374 1.376h-1.376c-.759 0-1.374-.616-1.374-1.376v-1.374c0-.76.615-1.376 1.374-1.376h1.376c.759 0 1.374.616 1.374 1.376v1.374Zm-8.25 5.844h1.375c.19 0 .344-.154.344-.343v-1.375a.344.344 0 0 0-.343-.344H4.813a.344.344 0 0 0-.344.344v1.374c0 .19.154.344.343.344Zm1.375 1.032c.76 0 1.375-.616 1.375-1.375v-1.375c0-.76-.615-1.376-1.375-1.376H4.813c-.759 0-1.375.616-1.375 1.376v1.374c0 .76.616 1.375 1.376 1.375h1.375ZM10.313 6.53h1.376c.19 0 .343-.154.343-.343V4.813a.344.344 0 0 0-.344-.344h-1.374a.344.344 0 0 0-.344.343v1.375c0 .19.154.344.344.344Zm1.376 1.032c.759 0 1.374-.616 1.374-1.375V4.813c0-.76-.615-1.375-1.374-1.375h-1.376c-.759 0-1.374.615-1.374 1.374v1.375c0 .76.615 1.375 1.374 1.375h1.376Zm5.5-1.032h-1.375a.344.344 0 0 1-.344-.343V4.813c0-.19.154-.344.344-.344h1.374c.19 0 .344.154.344.343v1.375c0 .19-.154.344-.343.344Zm1.375-.343c0 .759-.616 1.375-1.375 1.375h-1.375c-.76 0-1.376-.616-1.376-1.375V4.813c0-.76.616-1.375 1.376-1.375h1.374c.76 0 1.375.615 1.375 1.374v1.375Z" fill="#F8BC3B" data-darkreader-inline-fill="" style="--darkreader-inline-fill:#f8bf45;"></path><path d="M18.183 18.182v-4.364m0 0h-4.364m4.364 0-4.364 4.364" stroke="#fff" stroke-width="4.5" stroke-linecap="round" stroke-linejoin="round" data-darkreader-inline-stroke="" style="--darkreader-inline-stroke:#e8e6e3;"></path><path d="M18.183 18.182v-4.364m0 0h-4.364m4.364 0-4.364 4.364" stroke="#2A2A2F" stroke-width="1.4" stroke-linecap="round" stroke-linejoin="round" data-darkreader-inline-stroke="" style="--darkreader-inline-stroke:#ccc7c1;"></path></svg>