<svg data-name="Layer 1" xmlns="http://www.w3.org/2000/svg" viewBox="0 0 22 22"><path d="M14.48 16.5a1.14 1.14 0 0 0 1-1.44c-.53-2.46-2.39-4.28-4.59-4.28s-4.03 1.82-4.56 4.28a1.14 1.14 0 0 0 1 1.44z" fill="none" stroke="currentColor" stroke-linecap="round" stroke-linejoin="round" stroke-width="1.5" data-darkreader-inline-stroke="" style="--darkreader-inline-stroke:currentColor;"></path><ellipse cx="10.92" cy="7.64" rx="2.19" ry="2.14" fill="none" stroke="currentColor" stroke-linecap="round" stroke-linejoin="round" stroke-width="1.5" data-darkreader-inline-stroke="" style="--darkreader-inline-stroke:currentColor;"></ellipse><path d="M15 13.37a2.91 2.91 0 0 1 2-.81h0a3.23 3.23 0 0 1 2.87 2 1.28 1.28 0 0 1-1.2 1.77H15.5" fill="none" stroke="currentColor" stroke-linecap="round" stroke-linejoin="round" stroke-width="1.5" data-darkreader-inline-stroke="" style="--darkreader-inline-stroke:currentColor;"></path><ellipse cx="17.24" cy="10.17" rx="1.7" ry="1.67" fill="none" stroke="currentColor" stroke-linecap="round" stroke-linejoin="round" stroke-width="1.5" data-darkreader-inline-stroke="" style="--darkreader-inline-stroke:currentColor;"></ellipse><path d="M6.86 13.19A3 3 0 0 0 5 12.56h0a3.3 3.3 0 0 0-2.93 2 1.28 1.28 0 0 0 1.23 1.77h3.16" fill="none" stroke="currentColor" stroke-linecap="round" stroke-linejoin="round" stroke-width="1.5" data-darkreader-inline-stroke="" style="--darkreader-inline-stroke:currentColor;"></path><ellipse cx="4.68" cy="10.17" rx="1.7" ry="1.67" fill="none" stroke="currentColor" stroke-linecap="round" stroke-linejoin="round" stroke-width="1.5" data-darkreader-inline-stroke="" style="--darkreader-inline-stroke:currentColor;"></ellipse></svg>