<svg data-name="Layer 1" xmlns="http://www.w3.org/2000/svg" viewBox="0 0 22 22"><circle cx="6.56" cy="16.33" r="2.67" transform="rotate(-70.86 6.557 16.33)" fill="none" stroke="currentColor" stroke-linecap="round" stroke-linejoin="round" stroke-width="1.5" data-darkreader-inline-stroke="" style="--darkreader-inline-stroke:currentColor;"></circle><circle cx="15.44" cy="11" r="2.67" transform="rotate(-70.86 15.442 10.997)" fill="none" stroke="currentColor" stroke-linecap="round" stroke-linejoin="round" stroke-width="1.5" data-darkreader-inline-stroke="" style="--darkreader-inline-stroke:currentColor;"></circle><circle cx="6.56" cy="5.67" r="2.67" transform="matrix(.33 -.94 .94 .33 -.95 10)" fill="none" stroke="currentColor" stroke-linecap="round" stroke-linejoin="round" stroke-width="1.5" data-darkreader-inline-stroke="" style="--darkreader-inline-stroke:currentColor;"></circle><path fill="currentColor" d="M11 7.44a.89.89 0 1 0 .89.89.89.89 0 0 0-.89-.89zm-4.44 2.67a.89.89 0 1 0 .88.89.89.89 0 0 0-.88-.89zM11 12.78a.89.89 0 1 0 .89.89.89.89 0 0 0-.89-.89z" data-darkreader-inline-fill="" style="--darkreader-inline-fill:currentColor;"></path></svg>