<svg xmlns="http://www.w3.org/2000/svg" width="400" height="200" fill="none" viewBox="0 0 400 200"><path fill="#7B80FF" fill-opacity=".15" fill-rule="evenodd" d="M200.997 154.878v17.831a1.5 1.5 0 1 1-3 0v-17.831h3zm-1.5-38.963a1.5 1.5 0 0 1 1.5 1.5v7.347H215.492l-.058-.143a1.5 1.5 0 1 1 2.776-1.136l.524 1.279h4.332a1.5 1.5 0 1 1 0 3h-3.105l8.025 19.616h23.19l-13.034-16.118a1.5 1.5 0 1 1 2.333-1.886l14.559 18.004h21.899l-23.102-19.226-.469-.39h-10.826a1.5 1.5 0 1 1 0-3h7.222l-2.793-2.324a1.5 1.5 0 1 1 1.92-2.305l5.562 4.629h12.348l-3.536-2.203a1.501 1.501 0 0 1 1.587-2.547l7.622 4.75h5.178a1.5 1.5 0 0 1 0 3h-.363l31.48 19.616h19.485l-35.418-17.56a1.5 1.5 0 0 1 1.333-2.688l87.733 43.498a1.5 1.5 0 0 1-1.332 2.688l-46.681-23.144a1.49 1.49 0 0 1-.759.206h-19.547l33.795 21.058a1.5 1.5 0 0 1-1.586 2.546l-37.881-23.604h-22.677l25.448 21.178a1.501 1.501 0 0 1-1.919 2.306l-28.219-23.484H257.46l17.297 21.388a1.5 1.5 0 0 1-2.333 1.887l-18.822-23.275h-24.389l8.903 21.764a1.5 1.5 0 1 1-2.776 1.135l-9.368-22.899h-20.848v-3h19.62l-8.024-19.616h-15.723v15.116h-3v-15.116h-15.406l-8.162 19.616h18.695v3h-19.943l-9.531 22.908a1.5 1.5 0 1 1-2.77-1.153l9.052-21.755h-15.808a1.5 1.5 0 0 1 0-3h17.056l8.161-19.616h-7.123a1.5 1.5 0 1 1 0-3h8.371l1.303-3.131a1.5 1.5 0 1 1 2.77 1.153l-.823 1.978h14.158v-7.347a1.5 1.5 0 0 1 1.5-1.5zm82.126 31.463h21.467l-30.661-19.106-.819-.51h-13.558l23.571 19.616zm-141.311 7.027a1.5 1.5 0 0 1 .215 2.11l-4.654 5.714-9.308 11.428a1.5 1.5 0 0 1-2.326-1.895l9.308-11.427 4.654-5.714a1.5 1.5 0 0 1 2.111-.216zm-28.548.204a1.5 1.5 0 0 1-.193 2.112l-6.866 5.714-13.731 11.427a1.5 1.5 0 1 1-1.92-2.306l13.732-11.427 6.866-5.714a1.5 1.5 0 0 1 2.112.194zm-31.904 1.456a1.5 1.5 0 0 1-.48 2.066l-7.096 4.424-18.34 11.427a1.5 1.5 0 1 1-1.586-2.546l18.34-11.427 7.095-4.424a1.5 1.5 0 0 1 2.067.48z" clip-rule="evenodd"/><path fill="#7B80FF" fill-opacity=".3" fill-rule="evenodd" d="M199.114 25.434l.751-.434.751.434 23.592 13.64.749.432V68.516l-.749.433-21.176 12.242 85.496 42.571 65.535-78.66a6 6 0 1 1 2.196 2.05l-66.402 79.702a1.502 1.502 0 0 1-1.653.454l-40.598-14.371-10.032 13.837a1.502 1.502 0 0 1-1.674.548l-20.643-6.635a1.526 1.526 0 0 1-.272-.119l-14.85-8.288H199.313l-13.163 5.641a1.511 1.511 0 0 1-.518.223l-20.967 8.985-18.937 22.943a1.5 1.5 0 0 1-1.157.545H91.404l-.228.142c-.3.187-.64.255-.966.217l-71.26 22.427a1.484 1.484 0 0 1-.239.055 1.5 1.5 0 0 1-.881-2.828l46.294-23.147v-.105h.21l40.412-20.206a6 6 0 0 1 10.411-5.205l81.546-40.773-21.181-12.245-.749-.433V39.506l.749-.433 23.592-13.639zm-91.148 101.805c.035.071.064.142.087.215a3 3 0 0 0 5.343-2.682 1.579 1.579 0 0 1-.205-.419 3 3 0 0 0-5.36 2.667c.05.068.095.141.135.219zm-36.923 20.139l35.063-17.532a6.004 6.004 0 0 0 10.199-2.084h6.116L90.93 147.378H71.042zm56.195-22.616h-10.735l-.021-.104 24.756-12.378h6.038l-20.038 12.482zm-91.2 40.118l46.08-14.502H65.043L36.038 164.88zm67.086-17.263h14.365l23.956-19.855h-13.349l-31.492 19.616h6.52v.239zm19.066 0h21.674l16.389-19.855h-14.107l-23.956 19.855zm45.931-25.233l16.05-6.878 1.326-3.226h-9.094l-8.282 10.104zm19.988-8.566l3.588-1.538h-2.956l-.632 1.538zm18.182-1.538l5.141 2.87-1.18-2.87h-3.961zm9.351 5.22l.675.376 15.498 4.982L223 112.28h-9.504l2.146 5.22zm20.606 5.991l4.462-6.153-6.024-5.058h-7.78l9.342 11.211zm6.227-8.588l1.901-2.623h-5.025l3.124 2.623zm12.266-2.623l13.83 4.896-9.832-4.896h-3.998zm-7.12-3l-20.256-12.621 25.349 12.621h-5.093zm-75.779-12.302l-24.604 12.302h4.854l19.75-12.302zm56.445 6.014L217.65 94.14l24.299 15.14h-6.171l-7.486-6.284-.005-.004zm-46.464-8.697l-24.056 14.985h5.977l18.079-14.984zM152.95 112.28l-20.038 12.482h12.152l15.06-12.482h-7.174zm71.456-3l-15.27-18.323 17.227 14.337.005.004 4.744 3.982h-6.706zm-35.57-16.9l-20.391 16.9h6.538l13.853-16.9zm-24.011 19.9l-15.059 12.482h12.527l10.231-12.482h-7.699zm47.437-3l-8.029-19.52 16.267 19.52h-8.238zm-17.606-19.27l-15.794 19.27h7.869l7.925-19.27zm6.34 19.27V89.777l8.022 19.503h-8.022zm-3-19.503l-8.021 19.503h8.021V89.777zm8.128-37.233l15.833-9.52v22.078l-15.833-8.787v-3.771zm0-3.5l14.38-8.647-19.139-11.064v19.545h4.759v.165zm-7.759-.166h-4.241v.477l-14.898-8.958 19.139-11.064v19.545zm-4.241 3.977l-16.351-9.831v22.114l16.351-8.812v-3.471zm0 6.879l-14.775 7.962 19.016 10.994V60.878h-4.241v-1.144zm7.241 1.144V78.69l19.049-11.013-14.29-7.931v1.132h-4.759zm-4.241-9h6v6h-6v-6zm163.189-.816a1.5 1.5 0 0 1 1.748 1.202l.01.049a1.5 1.5 0 0 1-2.95.547l-.009-.05a1.5 1.5 0 0 1 1.201-1.748zm1.466 7.903a1.5 1.5 0 0 1 1.748 1.201l.018.099a1.5 1.5 0 0 1-2.95.547l-.018-.099a1.5 1.5 0 0 1 1.202-1.748zm1.474 7.952a1.5 1.5 0 0 1 1.748 1.201l.019.098a1.5 1.5 0 0 1-2.95.547l-.018-.098a1.5 1.5 0 0 1 1.201-1.748zm1.475 7.952a1.5 1.5 0 0 1 1.748 1.201l.018.098a1.5 1.5 0 0 1-2.95.547l-.018-.098a1.5 1.5 0 0 1 1.202-1.748zm1.474 7.951a1.5 1.5 0 0 1 1.748 1.202l.019.098a1.5 1.5 0 0 1-2.95.547l-.018-.098a1.5 1.5 0 0 1 1.201-1.749zm1.475 7.952a1.5 1.5 0 0 1 1.748 1.202l.018.098a1.5 1.5 0 0 1-2.95.547l-.018-.098a1.5 1.5 0 0 1 1.202-1.749zm1.474 7.952a1.5 1.5 0 0 1 1.748 1.201l.019.099a1.5 1.5 0 0 1-2.95.547l-.018-.099a1.5 1.5 0 0 1 1.201-1.748zm1.475 7.952a1.5 1.5 0 0 1 1.748 1.201l.018.098a1.5 1.5 0 1 1-2.95.547l-.018-.098a1.5 1.5 0 0 1 1.202-1.748zm1.474 7.952a1.5 1.5 0 0 1 1.748 1.201l.019.098a1.5 1.5 0 1 1-2.95.547l-.018-.098a1.5 1.5 0 0 1 1.201-1.748zm1.475 7.952a1.499 1.499 0 0 1 1.748 1.201l.018.098a1.5 1.5 0 1 1-2.95.547l-.018-.098a1.5 1.5 0 0 1 1.202-1.748zm1.474 7.951a1.5 1.5 0 0 1 1.748 1.202l.019.098a1.5 1.5 0 0 1-2.95.547l-.018-.098a1.5 1.5 0 0 1 1.201-1.749zm1.475 7.952a1.5 1.5 0 0 1 1.748 1.202l.018.098a1.5 1.5 0 0 1-2.95.547l-.018-.098a1.5 1.5 0 0 1 1.202-1.749zm1.474 7.952a1.5 1.5 0 0 1 1.748 1.201l.019.099a1.5 1.5 0 0 1-2.95.547l-.018-.099a1.5 1.5 0 0 1 1.201-1.748zm1.475 7.952a1.5 1.5 0 0 1 1.748 1.201l.018.098a1.5 1.5 0 1 1-2.95.547l-.018-.098a1.5 1.5 0 0 1 1.202-1.748zm1.474 7.952a1.499 1.499 0 0 1 1.748 1.201l.01.049a1.5 1.5 0 1 1-2.95.547l-.009-.049a1.5 1.5 0 0 1 1.201-1.748zM359.124 44.878a3 3 0 1 1 0-6 3 3 0 0 1 0 6z" clip-rule="evenodd"/><path stroke="#7B80FF" stroke-opacity=".3" stroke-width="3" d="M194.624 144.378h9v9h-9z"/></svg>