<svg data-name="Layer 1" xmlns="http://www.w3.org/2000/svg" viewBox="0 0 22 22"><path d="M18.1 8.6h-3.2A1.6 1.6 0 0 1 13.3 7V3" stroke-width="1.5" fill="none" stroke="currentColor" stroke-linecap="round" stroke-linejoin="round" data-darkreader-inline-stroke="" style="--darkreader-inline-stroke:currentColor;"></path><path d="M5.3 9.56v-5A1.6 1.6 0 0 1 6.9 3h6.45a1.58 1.58 0 0 1 1.23.58l3.15 3.77a1.61 1.61 0 0 1 .37 1v9A1.6 1.6 0 0 1 16.5 19H7.7" stroke-width="1.5" fill="none" stroke="currentColor" stroke-linecap="round" stroke-linejoin="round" data-darkreader-inline-stroke="" style="--darkreader-inline-stroke:currentColor;"></path><path d="M6.1 11.8H4.5A1.2 1.2 0 0 0 3.3 13v2.4a1.2 1.2 0 0 0 1.2 1.2h1.6m4.8-4.8h-2a.8.8 0 0 0-.8.8v.8a.8.8 0 0 0 .8.8h1.6a.8.8 0 0 1 .8.8v.8a.8.8 0 0 1-.8.8h-2m7.6-4.8V15a1.6 1.6 0 0 1-1.6 1.6h-1.2v-4.8" fill="none" stroke="currentColor" stroke-linecap="round" stroke-linejoin="round" data-darkreader-inline-stroke="" style="--darkreader-inline-stroke:currentColor;"></path></svg>