<svg data-name="Layer 1" xmlns="http://www.w3.org/2000/svg" viewBox="0 0 22 22"><path d="M17.4 8.6h-3.2A1.6 1.6 0 0 1 12.6 7V3" fill="none" stroke="currentColor" stroke-linecap="round" stroke-linejoin="round" stroke-width="1.5" data-darkreader-inline-stroke="" style="--darkreader-inline-stroke:currentColor;"></path><path d="M17.4 8.38v9A1.6 1.6 0 0 1 15.8 19H6.2a1.6 1.6 0 0 1-1.6-1.6V4.6A1.6 1.6 0 0 1 6.2 3h6.45a1.58 1.58 0 0 1 1.23.58L17 7.35a1.61 1.61 0 0 1 .4 1.03z" fill="none" stroke="currentColor" stroke-linecap="round" stroke-linejoin="round" stroke-width="1.5" data-darkreader-inline-stroke="" style="--darkreader-inline-stroke:currentColor;"></path><path fill="none" stroke="currentColor" stroke-linecap="round" stroke-linejoin="round" stroke-width="1.5" d="M14.34 13.66L11 17l-3.34-3.34M11 16.58V10" data-darkreader-inline-stroke="" style="--darkreader-inline-stroke:currentColor;"></path></svg>