<svg data-name="Layer 1" xmlns="http://www.w3.org/2000/svg" viewBox="0 0 22 22"><path d="M18.1 8.6h-3.2A1.6 1.6 0 0 1 13.3 7V3" stroke-width="1.5" fill="none" stroke="currentColor" stroke-linecap="round" stroke-linejoin="round" data-darkreader-inline-stroke="" style="--darkreader-inline-stroke:currentColor;"></path><path d="M5.3 9.56v-5A1.6 1.6 0 0 1 6.9 3h6.45a1.58 1.58 0 0 1 1.23.58l3.15 3.77a1.61 1.61 0 0 1 .37 1v9A1.6 1.6 0 0 1 16.5 19H7.7" stroke-width="1.5" fill="none" stroke="currentColor" stroke-linecap="round" stroke-linejoin="round" data-darkreader-inline-stroke="" style="--darkreader-inline-stroke:currentColor;"></path><path fill="none" stroke="currentColor" stroke-linecap="round" stroke-linejoin="round" d="M3.3 16.6v-4.8h2.8v2.4H3.3m8-2.4v4.8m-3.2 0v-4.8l3.2 3.2m4-.8h.8v1.6a.8.8 0 0 1-.8.8h-1.2a.8.8 0 0 1-.8-.8v-3.2a.8.8 0 0 1 .8-.8h2" data-darkreader-inline-stroke="" style="--darkreader-inline-stroke:currentColor;"></path></svg>