<svg viewBox="0 0 22 22" xmlns="http://www.w3.org/2000/svg"><path fill-rule="evenodd" d="M8.369 9.75l-3.846-5h11.86l-4.231 5H8.369zm.38 1.5h3v4.263l-3 1.333V11.25zM3.025 5.262l4.226 5.493v6.476c0 .904.93 1.51 1.757 1.142l3.5-1.556c.452-.2.743-.648.743-1.142v-4.9l4.626-5.468c.687-.812.11-2.057-.954-2.057H4.015c-1.037 0-1.623 1.19-.99 2.012zM18.75 11a.75.75 0 00-1.5 0v1.25H16a.75.75 0 000 1.5h1.25V15a.75.75 0 001.5 0v-1.25H20a.75.75 0 000-1.5h-1.25V11z" fill="currentColor" data-darkreader-inline-fill="" style="--darkreader-inline-fill:currentColor;"></path></svg>