<svg data-name="Layer 1" xmlns="http://www.w3.org/2000/svg" viewBox="0 0 22 22"><path d="M3.48 5a2 2 0 0 1 1.94-2h11.64A2 2 0 0 1 19 5v12a2 2 0 0 1-1.94 2H5.42a2 2 0 0 1-1.94-2M3 8h1.94M3 11h1.94M3 14h1.94" fill="none" stroke="currentColor" stroke-linecap="round" stroke-linejoin="round" stroke-width="1.5" data-darkreader-inline-stroke="" style="--darkreader-inline-stroke:currentColor;"></path><path d="M11.44 11.82l-3-2a1 1 0 0 1 0-1.66l3-2a1 1 0 0 1 1.1 0l3 2a1 1 0 0 1 0 1.66l-3 2a1 1 0 0 1-1.1 0z" fill="none" stroke="currentColor" stroke-linecap="round" stroke-linejoin="round" stroke-width="1.5" data-darkreader-inline-stroke="" style="--darkreader-inline-stroke:currentColor;"></path><path d="M14.45 11.12l1.22.88a1 1 0 0 1 0 1.61l-3.09 2.28a1 1 0 0 1-1.18 0l-3.08-2.28a1 1 0 0 1 0-1.61l1.22-.88" fill="none" stroke="currentColor" stroke-linecap="round" stroke-linejoin="round" stroke-width="1.5" data-darkreader-inline-stroke="" style="--darkreader-inline-stroke:currentColor;"></path></svg>