<svg data-name="Layer 1" xmlns="http://www.w3.org/2000/svg" viewBox="0 0 22 22"><path d="M7.74 8.52a1.46 1.46 0 0 0 1 2.48 1.42 1.42 0 0 0 1.4-1.45V7.36A4.29 4.29 0 0 1 14.33 3" fill="none" stroke="currentColor" stroke-linecap="round" stroke-linejoin="round" stroke-width="1.5" data-darkreader-inline-stroke="" style="--darkreader-inline-stroke:currentColor;"></path><path d="M7.66 8.51a5.89 5.89 0 0 0-2.26 4.67A5.71 5.71 0 0 0 11 19a5.71 5.71 0 0 0 5.6-5.82c0-2-2.23-4.36-2.23-4.36a4 4 0 0 1 0-5.82" fill="none" stroke="currentColor" stroke-linecap="round" stroke-linejoin="round" stroke-width="1.5" data-darkreader-inline-stroke="" style="--darkreader-inline-stroke:currentColor;"></path><rect x="8.6" y="14.2" width="4.8" height="4.8" rx="2.4" fill="none" stroke="currentColor" stroke-linecap="round" stroke-linejoin="round" stroke-width="1.5" data-darkreader-inline-stroke="" style="--darkreader-inline-stroke:currentColor;"></rect><path d="M16.6 3h.8A1.6 1.6 0 0 1 19 4.6v12.8a1.6 1.6 0 0 1-1.6 1.6H4.6A1.6 1.6 0 0 1 3 17.4V4.6A1.6 1.6 0 0 1 4.6 3h4.7" fill="none" stroke="currentColor" stroke-linecap="round" stroke-linejoin="round" stroke-width="1.5" data-darkreader-inline-stroke="" style="--darkreader-inline-stroke:currentColor;"></path></svg>