<svg xmlns="http://www.w3.org/2000/svg" fill="currentColor" viewBox="0 0 400 200"><path fill="currentColor" fill-opacity=".3" fill-rule="evenodd" d="M26 29.5C26 22.044 32.044 16 39.5 16h140c7.456 0 13.5 6.044 13.5 13.5v140c0 7.456-6.044 13.5-13.5 13.5h-140c-7.456 0-13.5-6.044-13.5-13.5v-140zM39.5 19C33.701 19 29 23.701 29 29.5v140c0 5.799 4.701 10.5 10.5 10.5h140c5.799 0 10.5-4.701 10.5-10.5v-140c0-5.799-4.701-10.5-10.5-10.5h-140zM206 29.5c0-7.456 6.044-13.5 13.5-13.5h140c7.456 0 13.5 6.044 13.5 13.5v140c0 7.456-6.044 13.5-13.5 13.5h-140c-7.456 0-13.5-6.044-13.5-13.5v-140zM219.5 19c-5.799 0-10.5 4.701-10.5 10.5v140c0 5.799 4.701 10.5 10.5 10.5h140c5.799 0 10.5-4.701 10.5-10.5v-140c0-5.799-4.701-10.5-10.5-10.5h-140zm70 44C269.894 63 254 78.894 254 98.5s15.894 35.5 35.5 35.5S325 118.106 325 98.5 309.106 63 289.5 63zM257 98.5c0-17.95 14.551-32.5 32.5-32.5 17.949 0 32.5 14.55 32.5 32.5 0 17.949-14.551 32.5-32.5 32.5-17.949 0-32.5-14.551-32.5-32.5zm15 0a1.5 1.5 0 0 1 1.5-1.5H288V82.5a1.5 1.5 0 0 1 3 0V97h14.5a1.5 1.5 0 0 1 0 3H291v14.5a1.5 1.5 0 0 1-3 0V100h-14.5a1.5 1.5 0 0 1-1.5-1.5zm-231.894-41a5.5 5.5 0 0 1 5.5-5.5h19.572a5.5 5.5 0 0 1 5.5 5.5v106.135a5.5 5.5 0 0 1-5.5 5.5H45.606a5.5 5.5 0 0 1-5.5-5.5V57.5zm5.5-2.5a2.5 2.5 0 0 0-2.5 2.5v106.135a2.5 2.5 0 0 0 2.5 2.5h19.572a2.5 2.5 0 0 0 2.5-2.5V57.5a2.5 2.5 0 0 0-2.5-2.5H45.606zm35.908-3a5.5 5.5 0 0 0-5.5 5.5v106.135a5.5 5.5 0 0 0 5.5 5.5h19.572a5.5 5.5 0 0 0 5.5-5.5V57.5a5.5 5.5 0 0 0-5.5-5.5H81.514zm-2.5 5.5a2.5 2.5 0 0 1 2.5-2.5h19.572a2.5 2.5 0 0 1 2.5 2.5v106.135a2.5 2.5 0 0 1-2.5 2.5H81.514a2.5 2.5 0 0 1-2.5-2.5V57.5zm33.549 46.167a5.5 5.5 0 0 1 5.5-5.5h19.572a5.5 5.5 0 0 1 5.5 5.5v59.968a5.5 5.5 0 0 1-5.5 5.5h-19.572a5.5 5.5 0 0 1-5.5-5.5v-59.968zm5.5-2.5a2.5 2.5 0 0 0-2.5 2.5v59.968a2.5 2.5 0 0 0 2.5 2.5h19.572a2.5 2.5 0 0 0 2.5-2.5v-59.968a2.5 2.5 0 0 0-2.5-2.5h-19.572zm35.908-3a5.5 5.5 0 0 0-5.5 5.5v59.968a5.5 5.5 0 0 0 5.5 5.5h19.572a5.5 5.5 0 0 0 5.5-5.5v-59.968a5.5 5.5 0 0 0-5.5-5.5h-19.572zm-2.5 5.5a2.5 2.5 0 0 1 2.5-2.5h19.572a2.5 2.5 0 0 1 2.5 2.5v59.968a2.5 2.5 0 0 1-2.5 2.5h-19.572a2.5 2.5 0 0 1-2.5-2.5v-59.968z" clip-rule="evenodd"/><path fill="currentColor" fill-opacity=".15" fill-rule="evenodd" d="M45.5 38a2.5 2.5 0 1 1 0-5 2.5 2.5 0 0 1 0 5zM40 35.5a5.5 5.5 0 1 0 11 0 5.5 5.5 0 0 0-11 0zM60.248 38a2.5 2.5 0 1 1 0-5 2.5 2.5 0 0 1 0 5zm-5.5-2.5a5.5 5.5 0 1 0 11 0 5.5 5.5 0 0 0-11 0zm17.748 0a2.5 2.5 0 1 0 5 0 2.5 2.5 0 0 0-5 0zm2.5 5.5a5.5 5.5 0 1 1 0-11 5.5 5.5 0 0 1 0 11zm37.567 12.5a1.5 1.5 0 0 1 1.5-1.5h26.931a1.5 1.5 0 0 1 0 3h-26.931a1.5 1.5 0 0 1-1.5-1.5zm37.408-1.5a1.5 1.5 0 1 0 0 3h26.93a1.5 1.5 0 1 0 0-3h-26.93zm-37.408 9.194a1.5 1.5 0 0 1 1.5-1.5h26.931a1.5 1.5 0 0 1 0 3h-26.931a1.5 1.5 0 0 1-1.5-1.5zm37.408-1.5a1.5 1.5 0 1 0 0 3h26.93a1.5 1.5 0 1 0 0-3h-26.93zm-37.408 9.195a1.5 1.5 0 0 1 1.5-1.5h26.931a1.5 1.5 0 0 1 0 3h-26.931a1.5 1.5 0 0 1-1.5-1.5zm37.408-1.5a1.5 1.5 0 1 0 0 3h26.93a1.5 1.5 0 1 0 0-3h-26.93zm-37.408 9.195a1.5 1.5 0 0 1 1.5-1.5h26.931a1.5 1.5 0 0 1 0 3h-26.931a1.5 1.5 0 0 1-1.5-1.5zm37.408-1.5a1.5 1.5 0 1 0 0 3h26.93a1.5 1.5 0 1 0 0-3h-26.93zm-37.408 9.194a1.5 1.5 0 0 1 1.5-1.5h26.931a1.5 1.5 0 0 1 0 3h-26.931a1.5 1.5 0 0 1-1.5-1.5zm37.408-1.5a1.5 1.5 0 1 0 0 3h26.93a1.5 1.5 0 1 0 0-3h-26.93zm-37.408 9.195a1.5 1.5 0 0 1 1.5-1.5h26.931a1.5 1.5 0 0 1 0 3h-26.931a1.5 1.5 0 0 1-1.5-1.5zm37.408-1.5a1.5 1.5 0 1 0 0 3h26.93a1.5 1.5 0 1 0 0-3h-26.93z" clip-rule="evenodd"/></svg>
