<svg data-name="Layer 1" xmlns="http://www.w3.org/2000/svg" viewBox="0 0 22 22"><path d="M3 6.2v9.6a1.6 1.6 0 0 0 1.6 1.6H15" fill="none" stroke="currentColor" stroke-linecap="round" stroke-linejoin="round" stroke-width="1.5" data-darkreader-inline-stroke="" style="--darkreader-inline-stroke:currentColor;"></path><path fill="none" stroke="currentColor" stroke-linecap="round" stroke-linejoin="round" stroke-width="1.5" d="M14.2 15.8l1.6 1.6-1.6 1.6m4.8-3.2V6.2a1.6 1.6 0 0 0-1.6-1.6H7" data-darkreader-inline-stroke="" style="--darkreader-inline-stroke:currentColor;"></path><path fill="none" stroke="currentColor" stroke-linecap="round" stroke-linejoin="round" stroke-width="1.5" d="M7.8 6.2L6.2 4.6 7.8 3" data-darkreader-inline-stroke="" style="--darkreader-inline-stroke:currentColor;"></path><path fill="currentColor" d="M9.2 13.28a1 1 0 1 0 1 1 1 1 0 0 0-1-1zM7.32 10a1 1 0 0 0-1 1 1 1 0 0 0 2 0 1 1 0 0 0-1-1zM11 10a1 1 0 0 0-1 1 1 1 0 0 0 2 0 1 1 0 0 0-1-1zm3.6 0a1 1 0 0 0-1 1 1 1 0 0 0 2 0 1 1 0 0 0-1-1zm-1.8-3.2a1 1 0 1 0 1 1 1 1 0 0 0-1-1z" data-darkreader-inline-fill="" style="--darkreader-inline-fill:currentColor;"></path></svg>