<svg viewBox="0 0 22 22" fill="none" xmlns="http://www.w3.org/2000/svg"><path d="M6.362 13.112c0 .925-.756 1.68-1.681 1.68S3 14.038 3 13.113s.756-1.681 1.68-1.681h1.682v1.68zm.846-.001c0-.925.756-1.68 1.681-1.68s1.681.755 1.681 1.68v4.209c0 .925-.756 1.68-1.68 1.68a1.685 1.685 0 01-1.682-1.68v-4.21zM8.89 6.362c-.925 0-1.681-.756-1.681-1.681S7.965 3 8.889 3c.926 0 1.682.756 1.682 1.68v1.682H8.89zm0 .846c.925 0 1.68.756 1.68 1.681s-.755 1.681-1.68 1.681H4.68C3.757 10.57 3 9.814 3 8.89c0-.926.756-1.682 1.68-1.682h4.21zm6.749 1.682c0-.926.755-1.681 1.68-1.681.926 0 1.681.755 1.681 1.68 0 .926-.755 1.681-1.68 1.681h-1.681V8.89zm-.847 0c0 .925-.756 1.68-1.681 1.68s-1.68-.755-1.68-1.68V4.68c0-.924.755-1.68 1.68-1.68.925 0 1.68.756 1.68 1.68v4.21zm-1.681 6.749c.925 0 1.68.756 1.68 1.68 0 .926-.755 1.682-1.68 1.682-.925 0-1.68-.756-1.68-1.681v-1.681h1.68zm0-.847c-.925 0-1.68-.756-1.68-1.68 0-.926.755-1.682 1.68-1.682h4.209c.925 0 1.68.756 1.68 1.681s-.755 1.681-1.68 1.681h-4.21z" fill="currentColor" data-darkreader-inline-fill="" style="--darkreader-inline-fill:currentColor;"></path></svg>