<svg data-name="Layer 1" xmlns="http://www.w3.org/2000/svg" viewBox="0 0 22 22"><path d="M11.15 18.25l7.52-7.51a1.89 1.89 0 0 0 .54-1.31V4.64a1.85 1.85 0 0 0-1.85-1.85h-4.79a1.89 1.89 0 0 0-1.31.54l-7.51 7.52a1.86 1.86 0 0 0 0 2.62l4.78 4.78a1.86 1.86 0 0 0 2.62 0z" fill="none" stroke="currentColor" stroke-linecap="round" stroke-linejoin="round" stroke-width="1.5" data-darkreader-inline-stroke="" style="--darkreader-inline-stroke:currentColor;"></path><path fill="currentColor" d="M15.51 5.64a.85.85 0 0 1 .85.85.88.88 0 0 1-.25.61.85.85 0 0 1-.6.24.82.82 0 0 1-.85-.85.85.85 0 0 1 .24-.6.88.88 0 0 1 .61-.25m0-1a1.81 1.81 0 0 0-1.31.55 1.85 1.85 0 1 0 2.61 0 1.8 1.8 0 0 0-1.3-.55z" data-darkreader-inline-fill="" style="--darkreader-inline-fill:currentColor;"></path></svg>