<svg width="22" height="22" fill="none" xmlns="http://www.w3.org/2000/svg"><path d="M6.34 3.484a.75.75 0 10-.75-1.29 8.69 8.69 0 00-3.2 3.2.75.75 0 001.29.75 7.37 7.37 0 012.66-2.66zm13.37 2.03a8.78 8.78 0 00-3.42-3.42.754.754 0 00-.73 1.32 7.26 7.26 0 012.83 2.83.76.76 0 00.66.39.78.78 0 00.722-.547.75.75 0 00-.062-.573zM14 10.054h-2.25v-2.25a.75.75 0 00-1.5 0v3a.76.76 0 00.75.75h3a.75.75 0 000-1.5zm-5.474-4.17a.842.842 0 100-1.684.842.842 0 000 1.684zm0 12.316a.842.842 0 100-1.684.842.842 0 000 1.684zm-2.421-1.895a.842.842 0 100-1.684.842.842 0 000 1.684zm0-8.526a.842.842 0 100-1.684.842.842 0 000 1.684zm-1.263 2.737a.842.842 0 100-1.684.842.842 0 000 1.684zm0 3.052a.842.842 0 100-1.684.842.842 0 000 1.684z" fill="currentColor" data-darkreader-inline-fill="" style="--darkreader-inline-fill:currentColor;"></path><path d="M11 18.507c1.616 0 3.232-.54 4.56-1.62l1.91 1.9a.75.75 0 001.06-1.06l-1.9-1.91A7.25 7.25 0 0011 4v1.508a5.75 5.75 0 015.75 5.75 5.76 5.76 0 01-5.75 5.75v1.5z" fill="currentColor" data-darkreader-inline-fill="" style="--darkreader-inline-fill:currentColor;"></path></svg>