<svg fill="none" xmlns="http://www.w3.org/2000/svg" viewBox="0 0 22 22"><path d="M8.172 13.762v0a3 3 0 001.59-3.934v0A3 3 0 005.828 8.24v0a3 3 0 00-1.59 3.934v0" stroke="currentColor" stroke-width="1.5" data-darkreader-inline-stroke="" style="--darkreader-inline-stroke:currentColor;"></path><path d="M2.625 19L4.5 16.5m0 0L6.375 19M4.5 16.5V14m0 2.5l2.5-.625m-2.5.625L2 15.875" stroke="currentColor" stroke-width="1.5" stroke-linecap="square" data-darkreader-inline-stroke="" style="--darkreader-inline-stroke:currentColor;"></path><path d="M13 11a3 3 0 013-3v0a3 3 0 013 3v0a3 3 0 01-3 3v0a3 3 0 01-3-3v0z" fill="currentColor" stroke="currentColor" stroke-width="1.5" data-darkreader-inline-stroke="" style="--darkreader-inline-stroke:currentColor; --darkreader-inline-fill:currentColor;" data-darkreader-inline-fill=""></path></svg>